Interstate-Compressed_Hairline.ufo
<glyph name="exclam" format="1">
  <advance width="120"/>
  <unicode hex="0021"/>
  <outline>
    <contour>
      <point x="62" y="130" type="line"/>
      <point x="58" y="130" type="line"/>
      <point x="58" y="371" type="line"/>
      <point x="58" y="700" type="line"/>
      <point x="62" y="700" type="line"/>
      <point x="62" y="371" type="line"/>
    </contour>
    <contour>
      <point x="62" y="0" type="line"/>
      <point x="58" y="0" type="line"/>
      <point x="58" y="60" type="line"/>
      <point x="62" y="60" type="line"/>
    </contour>
  </outline>
</glyph>
<glyph name="quotedbl" format="1">
  <advance width="188"/>
  <unicode hex="0022"/>
  <outline>
    <contour>
      <point x="136" y="500" type="line"/>
      <point x="132" y="500" type="line"/>
      <point x="132" y="700" type="line"/>
      <point x="136" y="700" type="line"/>
    </contour>
    <contour>
      <point x="56" y="500" type="line"/>
      <point x="52" y="500" type="line"/>
      <point x="52" y="700" type="line"/>
      <point x="56" y="700" type="line"/>
    </contour>
  </outline>
</glyph>
<glyph name="numbersign" format="1">
  <advance width="327"/>
  <unicode hex="0023"/>
  <outline>
    <contour>
      <point x="311" y="208" type="line"/>
      <point x="246" y="208" type="line"/>
      <point x="246" y="0" type="line"/>
      <point x="242" y="0" type="line"/>
      <point x="242" y="208" type="line"/>
      <point x="85" y="208" type="line"/>
      <point x="85" y="0" type="line"/>
      <point x="81" y="0" type="line"/>
      <point x="81" y="208" type="line"/>
      <point x="16" y="208" type="line"/>
      <point x="16" y="212" type="line"/>
      <point x="81" y="212" type="line"/>
      <point x="81" y="487" type="line"/>
      <point x="16" y="487" type="line"/>
      <point x="16" y="491" type="line"/>
      <point x="81" y="491" type="line"/>
      <point x="81" y="700" type="line"/>
      <point x="85" y="700" type="line"/>
      <point x="85" y="491" type="line"/>
      <point x="242" y="491" type="line"/>
      <point x="242" y="700" type="line"/>
      <point x="246" y="700" type="line"/>
      <point x="246" y="491" type="line"/>
      <point x="311" y="491" type="line"/>
      <point x="311" y="487" type="line"/>
      <point x="246" y="487" type="line"/>
      <point x="246" y="212" type="line"/>
      <point x="311" y="212" type="line"/>
    </contour>
    <contour>
      <point x="242" y="212" type="line"/>
      <point x="242" y="487" type="line"/>
      <point x="85" y="487" type="line"/>
      <point x="85" y="212" type="line"/>
    </contour>
  </outline>
</glyph>
<glyph name="dollar" format="1">
  <advance width="264"/>
  <unicode hex="0024"/>
  <outline>
    <contour>
      <point x="230" y="145" type="curve" smooth="yes"/>
      <point x="230" y="50"/>
      <point x="195" y="-6"/>
      <point x="130" y="-7" type="curve"/>
      <point x="130" y="-66" type="line"/>
      <point x="126" y="-66" type="line"/>
      <point x="126" y="-7" type="line"/>
      <point x="71" y="-5"/>
      <point x="39" y="41"/>
      <point x="31" y="145" type="curve"/>
      <point x="35" y="145" type="line"/>
      <point x="43" y="43"/>
      <point x="74" y="-3"/>
      <point x="129" y="-3" type="curve" smooth="yes"/>
      <point x="192" y="-3"/>
      <point x="226" y="52"/>
      <point x="226" y="145" type="curve" smooth="yes"/>
      <point x="226" y="224"/>
      <point x="216" y="278"/>
      <point x="130" y="376" type="curve" smooth="yes"/>
      <point x="54" y="463"/>
      <point x="36" y="512"/>
      <point x="36" y="572" type="curve" smooth="yes"/>
      <point x="36" y="657"/>
      <point x="73" y="707"/>
      <point x="126" y="707" type="curve"/>
      <point x="126" y="766" type="line"/>
      <point x="130" y="766" type="line"/>
      <point x="130" y="707" type="line"/>
      <point x="178" y="707"/>
      <point x="211" y="672"/>
      <point x="228" y="574" type="curve"/>
      <point x="224" y="574" type="line"/>
      <point x="207" y="669"/>
      <point x="176" y="703"/>
      <point x="129" y="703" type="curve" smooth="yes"/>
      <point x="75" y="703"/>
      <point x="40" y="657"/>
      <point x="40" y="572" type="curve" smooth="yes"/>
      <point x="40" y="512"/>
      <point x="58" y="465"/>
      <point x="134" y="378" type="curve" smooth="yes"/>
      <point x="220" y="280"/>
      <point x="230" y="224"/>
    </contour>
  </outline>
</glyph>
<glyph name="percent" format="1">
  <advance width="409"/>
  <unicode hex="0025"/>
  <outline>
    <contour>
      <point x="176" y="524" type="curve" smooth="yes"/>
      <point x="176" y="408"/>
      <point x="145" y="339"/>
      <point x="100" y="339" type="curve" smooth="yes"/>
      <point x="55" y="339"/>
      <point x="26" y="406"/>
      <point x="26" y="522" type="curve" smooth="yes"/>
      <point x="26" y="638"/>
      <point x="57" y="707"/>
      <point x="102" y="707" type="curve" smooth="yes"/>
      <point x="147" y="707"/>
      <point x="176" y="640"/>
    </contour>
    <contour>
      <point x="346" y="700" type="line"/>
      <point x="67" y="0" type="line"/>
      <point x="63" y="0" type="line"/>
      <point x="342" y="700" type="line"/>
    </contour>
    <contour>
      <point x="383" y="178" type="curve" smooth="yes"/>
      <point x="383" y="62"/>
      <point x="352" y="-7"/>
      <point x="307" y="-7" type="curve" smooth="yes"/>
      <point x="262" y="-7"/>
      <point x="233" y="60"/>
      <point x="233" y="176" type="curve" smooth="yes"/>
      <point x="233" y="292"/>
      <point x="264" y="361"/>
      <point x="309" y="361" type="curve" smooth="yes"/>
      <point x="354" y="361"/>
      <point x="383" y="294"/>
    </contour>
    <contour>
      <point x="172" y="524" type="curve" smooth="yes"/>
      <point x="172" y="636"/>
      <point x="145" y="703"/>
      <point x="102" y="703" type="curve" smooth="yes"/>
      <point x="59" y="703"/>
      <point x="30" y="634"/>
      <point x="30" y="522" type="curve" smooth="yes"/>
      <point x="30" y="410"/>
      <point x="57" y="343"/>
      <point x="100" y="343" type="curve" smooth="yes"/>
      <point x="143" y="343"/>
      <point x="172" y="412"/>
    </contour>
    <contour>
      <point x="379" y="178" type="curve" smooth="yes"/>
      <point x="379" y="290"/>
      <point x="352" y="357"/>
      <point x="309" y="357" type="curve" smooth="yes"/>
      <point x="266" y="357"/>
      <point x="237" y="288"/>
      <point x="237" y="176" type="curve" smooth="yes"/>
      <point x="237" y="64"/>
      <point x="264" y="-3"/>
      <point x="307" y="-3" type="curve" smooth="yes"/>
      <point x="350" y="-3"/>
      <point x="379" y="66"/>
    </contour>
  </outline>
</glyph>
<glyph name="ampersand" format="1">
  <advance width="302"/>
  <unicode hex="0026"/>
  <outline>
    <contour>
      <point x="276" y="377" type="line"/>
      <point x="262" y="262"/>
      <point x="244" y="179"/>
      <point x="224" y="119" type="curve"/>
      <point x="267" y="1" type="line"/>
      <point x="263" y="-1" type="line"/>
      <point x="222" y="112" type="line"/>
      <point x="191" y="24"/>
      <point x="155" y="-7"/>
      <point x="115" y="-7" type="curve" smooth="yes"/>
      <point x="67" y="-7"/>
      <point x="36" y="46"/>
      <point x="36" y="140" type="curve" smooth="yes"/>
      <point x="36" y="237"/>
      <point x="70" y="321"/>
      <point x="119" y="393" type="curve"/>
      <point x="105" y="433" type="line" smooth="yes"/>
      <point x="77" y="512"/>
      <point x="70" y="561"/>
      <point x="70" y="604" type="curve" smooth="yes"/>
      <point x="70" y="669"/>
      <point x="100" y="707"/>
      <point x="146" y="707" type="curve" smooth="yes"/>
      <point x="193" y="707"/>
      <point x="221" y="661"/>
      <point x="234" y="580" type="curve"/>
      <point x="230" y="580" type="line"/>
      <point x="217" y="657"/>
      <point x="191" y="703"/>
      <point x="146" y="703" type="curve" smooth="yes"/>
      <point x="102" y="703"/>
      <point x="74" y="666"/>
      <point x="74" y="604" type="curve" smooth="yes"/>
      <point x="74" y="561"/>
      <point x="81" y="512"/>
      <point x="109" y="435" type="curve" smooth="yes"/>
      <point x="222" y="125" type="line"/>
      <point x="241" y="184"/>
      <point x="258" y="266"/>
      <point x="272" y="377" type="curve"/>
    </contour>
    <contour>
      <point x="220" y="118" type="curve"/>
      <point x="121" y="388" type="line"/>
      <point x="73" y="317"/>
      <point x="40" y="235"/>
      <point x="40" y="140" type="curve" smooth="yes"/>
      <point x="40" y="50"/>
      <point x="69" y="-3"/>
      <point x="115" y="-3" type="curve" smooth="yes"/>
      <point x="155" y="-3"/>
      <point x="190" y="29"/>
    </contour>
  </outline>
</glyph>
<glyph name="quotesingle" format="1">
  <advance width="108"/>
  <unicode hex="0027"/>
  <outline>
    <contour>
      <point x="56" y="500" type="line"/>
      <point x="52" y="500" type="line"/>
      <point x="52" y="700" type="line"/>
      <point x="56" y="700" type="line"/>
    </contour>
  </outline>
</glyph>
<glyph name="parenleft" format="1">
  <advance width="167"/>
  <unicode hex="0028"/>
  <outline>
    <contour>
      <point x="141" y="-109" type="curve"/>
      <point x="137" y="-111" type="line"/>
      <point x="73" y="9"/>
      <point x="39" y="145"/>
      <point x="39" y="302" type="curve" smooth="yes"/>
      <point x="39" y="459"/>
      <point x="73" y="595"/>
      <point x="137" y="715" type="curve"/>
      <point x="141" y="713" type="line"/>
      <point x="77" y="593"/>
      <point x="43" y="459"/>
      <point x="43" y="302" type="curve" smooth="yes"/>
      <point x="43" y="145"/>
      <point x="77" y="11"/>
    </contour>
  </outline>
</glyph>
<glyph name="parenright" format="1">
  <advance width="167"/>
  <unicode hex="0029"/>
  <outline>
    <contour>
      <point x="128" y="302" type="curve" smooth="yes"/>
      <point x="128" y="145"/>
      <point x="94" y="9"/>
      <point x="30" y="-111" type="curve"/>
      <point x="26" y="-109" type="line"/>
      <point x="90" y="11"/>
      <point x="124" y="145"/>
      <point x="124" y="302" type="curve" smooth="yes"/>
      <point x="124" y="459"/>
      <point x="90" y="593"/>
      <point x="26" y="713" type="curve"/>
      <point x="30" y="715" type="line"/>
      <point x="94" y="595"/>
      <point x="128" y="459"/>
    </contour>
  </outline>
</glyph>
<glyph name="asterisk" format="1">
  <advance width="262"/>
  <unicode hex="002A"/>
  <outline>
    <contour>
      <point x="237" y="519" type="line"/>
      <point x="235" y="515" type="line"/>
      <point x="133" y="575" type="line"/>
      <point x="133" y="455" type="line"/>
      <point x="129" y="455" type="line"/>
      <point x="129" y="575" type="line"/>
      <point x="27" y="515" type="line"/>
      <point x="25" y="519" type="line"/>
      <point x="126" y="578" type="line"/>
      <point x="25" y="637" type="line"/>
      <point x="27" y="641" type="line"/>
      <point x="129" y="581" type="line"/>
      <point x="129" y="700" type="line"/>
      <point x="133" y="700" type="line"/>
      <point x="133" y="581" type="line"/>
      <point x="235" y="641" type="line"/>
      <point x="237" y="637" type="line"/>
      <point x="136" y="578" type="line"/>
    </contour>
  </outline>
</glyph>
<glyph name="plus" format="1">
  <advance width="259"/>
  <unicode hex="002B"/>
  <outline>
    <contour>
      <point x="239" y="342" type="line"/>
      <point x="132" y="342" type="line"/>
      <point x="132" y="220" type="line"/>
      <point x="128" y="220" type="line"/>
      <point x="128" y="342" type="line"/>
      <point x="20" y="342" type="line"/>
      <point x="20" y="346" type="line"/>
      <point x="128" y="346" type="line"/>
      <point x="128" y="468" type="line"/>
      <point x="132" y="468" type="line"/>
      <point x="132" y="346" type="line"/>
      <point x="239" y="346" type="line"/>
    </contour>
  </outline>
</glyph>
<glyph name="comma" format="1">
  <advance width="62"/>
  <unicode hex="002C"/>
  <outline>
    <contour>
      <point x="36" y="60" type="line"/>
      <point x="18" y="-68" type="line"/>
      <point x="14" y="-68" type="line"/>
      <point x="32" y="60" type="line"/>
    </contour>
  </outline>
</glyph>
<glyph name="hyphen" format="1">
  <advance width="192"/>
  <unicode hex="002D"/>
  <unicode hex="2010"/>
  <unicode hex="2011"/>
  <outline>
    <contour>
      <point x="169" y="361" type="line"/>
      <point x="23" y="361" type="line"/>
      <point x="23" y="365" type="line"/>
      <point x="169" y="365" type="line"/>
    </contour>
  </outline>
</glyph>
<glyph name="period" format="1">
  <advance width="62"/>
  <unicode hex="002E"/>
  <outline>
    <contour>
      <point x="33" y="0" type="line"/>
      <point x="29" y="0" type="line"/>
      <point x="29" y="60" type="line"/>
      <point x="33" y="60" type="line"/>
    </contour>
  </outline>
</glyph>
<glyph name="slash" format="1">
  <advance width="162"/>
  <unicode hex="002F"/>
  <outline>
    <contour>
      <point x="166" y="790" type="line"/>
      <point x="0" y="-90" type="line"/>
      <point x="-4" y="-90" type="line"/>
      <point x="162" y="790" type="line"/>
    </contour>
  </outline>
</glyph>
<glyph name="zero" format="1">
  <advance width="308"/>
  <unicode hex="0030"/>
  <outline>
    <contour>
      <point x="265" y="350" type="curve" smooth="yes"/>
      <point x="265" y="77"/>
      <point x="219" y="-7"/>
      <point x="154" y="-7" type="curve" smooth="yes"/>
      <point x="89" y="-7"/>
      <point x="43" y="77"/>
      <point x="43" y="350" type="curve" smooth="yes"/>
      <point x="43" y="623"/>
      <point x="89" y="707"/>
      <point x="154" y="707" type="curve" smooth="yes"/>
      <point x="219" y="707"/>
      <point x="265" y="623"/>
    </contour>
    <contour>
      <point x="261" y="350" type="curve" smooth="yes"/>
      <point x="261" y="619"/>
      <point x="216" y="703"/>
      <point x="154" y="703" type="curve" smooth="yes"/>
      <point x="92" y="703"/>
      <point x="47" y="619"/>
      <point x="47" y="350" type="curve" smooth="yes"/>
      <point x="47" y="81"/>
      <point x="92" y="-3"/>
      <point x="154" y="-3" type="curve" smooth="yes"/>
      <point x="216" y="-3"/>
      <point x="261" y="81"/>
    </contour>
  </outline>
</glyph>
<glyph name="one" format="1">
  <advance width="139"/>
  <unicode hex="0031"/>
  <outline>
    <contour>
      <point x="87" y="0" type="line"/>
      <point x="83" y="0" type="line"/>
      <point x="83" y="695" type="line"/>
      <point x="68" y="665"/>
      <point x="40" y="644"/>
      <point x="6" y="639" type="curve"/>
      <point x="6" y="643" type="line"/>
      <point x="40" y="647"/>
      <point x="68" y="671"/>
      <point x="83" y="703" type="curve"/>
      <point x="87" y="703" type="line"/>
    </contour>
  </outline>
</glyph>
<glyph name="two" format="1">
  <advance width="272"/>
  <unicode hex="0032"/>
  <outline>
    <contour>
      <point x="238" y="0" type="line"/>
      <point x="29" y="0" type="line"/>
      <point x="29" y="113"/>
      <point x="58" y="205"/>
      <point x="139" y="314" type="curve" smooth="yes"/>
      <point x="202" y="397"/>
      <point x="232" y="451"/>
      <point x="232" y="548" type="curve" smooth="yes"/>
      <point x="232" y="635"/>
      <point x="203" y="703"/>
      <point x="139" y="703" type="curve" smooth="yes"/>
      <point x="83" y="703"/>
      <point x="55" y="642"/>
      <point x="42" y="548" type="curve"/>
      <point x="38" y="548" type="line"/>
      <point x="51" y="646"/>
      <point x="81" y="707"/>
      <point x="139" y="707" type="curve" smooth="yes"/>
      <point x="205" y="707"/>
      <point x="236" y="637"/>
      <point x="236" y="548" type="curve" smooth="yes"/>
      <point x="236" y="451"/>
      <point x="206" y="396"/>
      <point x="143" y="313" type="curve" smooth="yes"/>
      <point x="62" y="205"/>
      <point x="33" y="115"/>
      <point x="33" y="4" type="curve"/>
      <point x="238" y="4" type="line"/>
    </contour>
  </outline>
</glyph>
<glyph name="three" format="1">
  <advance width="254"/>
  <unicode hex="0033"/>
  <outline>
    <contour>
      <point x="224" y="183" type="curve" smooth="yes"/>
      <point x="224" y="73"/>
      <point x="182" y="-7"/>
      <point x="122" y="-7" type="curve" smooth="yes"/>
      <point x="69" y="-7"/>
      <point x="33" y="39"/>
      <point x="20" y="145" type="curve"/>
      <point x="24" y="145" type="line"/>
      <point x="37" y="43"/>
      <point x="71" y="-3"/>
      <point x="122" y="-3" type="curve" smooth="yes"/>
      <point x="180" y="-3"/>
      <point x="220" y="75"/>
      <point x="220" y="183" type="curve" smooth="yes"/>
      <point x="220" y="311"/>
      <point x="180" y="377"/>
      <point x="114" y="377" type="curve" smooth="yes"/>
      <point x="100" y="377" type="line"/>
      <point x="100" y="381" type="line"/>
      <point x="109" y="381" type="line" smooth="yes"/>
      <point x="188" y="381"/>
      <point x="216" y="457"/>
      <point x="216" y="548" type="curve" smooth="yes"/>
      <point x="216" y="637"/>
      <point x="179" y="703"/>
      <point x="128" y="703" type="curve" smooth="yes"/>
      <point x="74" y="703"/>
      <point x="43" y="647"/>
      <point x="29" y="561" type="curve"/>
      <point x="25" y="561" type="line"/>
      <point x="39" y="651"/>
      <point x="72" y="707"/>
      <point x="128" y="707" type="curve" smooth="yes"/>
      <point x="181" y="707"/>
      <point x="220" y="639"/>
      <point x="220" y="548" type="curve" smooth="yes"/>
      <point x="220" y="464"/>
      <point x="196" y="393"/>
      <point x="132" y="379" type="curve"/>
      <point x="189" y="368"/>
      <point x="224" y="303"/>
    </contour>
  </outline>
</glyph>
<glyph name="four" format="1">
  <advance width="276"/>
  <unicode hex="0034"/>
  <outline>
    <contour>
      <point x="261" y="208" type="line"/>
      <point x="210" y="208" type="line"/>
      <point x="210" y="0" type="line"/>
      <point x="206" y="0" type="line"/>
      <point x="206" y="208" type="line"/>
      <point x="10" y="208" type="line"/>
      <point x="10" y="210" type="line"/>
      <point x="206" y="703" type="line"/>
      <point x="210" y="703" type="line"/>
      <point x="210" y="212" type="line"/>
      <point x="261" y="212" type="line"/>
    </contour>
    <contour>
      <point x="206" y="212" type="line"/>
      <point x="206" y="691" type="line"/>
      <point x="15" y="212" type="line"/>
    </contour>
  </outline>
</glyph>
<glyph name="five" format="1">
  <advance width="255"/>
  <unicode hex="0035"/>
  <outline>
    <contour>
      <point x="234" y="211" type="curve" smooth="yes"/>
      <point x="234" y="64"/>
      <point x="183" y="-7"/>
      <point x="129" y="-7" type="curve" smooth="yes"/>
      <point x="74" y="-7"/>
      <point x="42" y="47"/>
      <point x="29" y="149" type="curve"/>
      <point x="33" y="149" type="line"/>
      <point x="46" y="51"/>
      <point x="76" y="-3"/>
      <point x="129" y="-3" type="curve" smooth="yes"/>
      <point x="181" y="-3"/>
      <point x="230" y="68"/>
      <point x="230" y="211" type="curve" smooth="yes"/>
      <point x="230" y="347"/>
      <point x="186" y="418"/>
      <point x="131" y="418" type="curve" smooth="yes"/>
      <point x="89" y="418"/>
      <point x="62" y="381"/>
      <point x="39" y="336" type="curve"/>
      <point x="35" y="337" type="line"/>
      <point x="50" y="700" type="line"/>
      <point x="220" y="700" type="line"/>
      <point x="220" y="696" type="line"/>
      <point x="54" y="696" type="line"/>
      <point x="39" y="346" type="line"/>
      <point x="63" y="389"/>
      <point x="90" y="422"/>
      <point x="131" y="422" type="curve" smooth="yes"/>
      <point x="188" y="422"/>
      <point x="234" y="351"/>
    </contour>
  </outline>
</glyph>
<glyph name="six" format="1">
  <advance width="284"/>
  <unicode hex="0036"/>
  <outline>
    <contour>
      <point x="254" y="211" type="curve" smooth="yes"/>
      <point x="254" y="85"/>
      <point x="215" y="-7"/>
      <point x="151" y="-7" type="curve" smooth="yes"/>
      <point x="82" y="-7"/>
      <point x="40" y="79"/>
      <point x="40" y="231" type="curve" smooth="yes"/>
      <point x="40" y="478"/>
      <point x="103" y="616"/>
      <point x="187" y="704" type="curve"/>
      <point x="189" y="701" type="line"/>
      <point x="114" y="621"/>
      <point x="53" y="495"/>
      <point x="45" y="289" type="curve"/>
      <point x="59" y="377"/>
      <point x="104" y="428"/>
      <point x="150" y="428" type="curve" smooth="yes"/>
      <point x="217" y="428"/>
      <point x="254" y="351"/>
    </contour>
    <contour>
      <point x="250" y="211" type="curve" smooth="yes"/>
      <point x="250" y="347"/>
      <point x="215" y="424"/>
      <point x="150" y="424" type="curve" smooth="yes"/>
      <point x="97" y="424"/>
      <point x="44" y="350"/>
      <point x="44" y="231" type="curve" smooth="yes"/>
      <point x="44" y="83"/>
      <point x="84" y="-3"/>
      <point x="151" y="-3" type="curve" smooth="yes"/>
      <point x="213" y="-3"/>
      <point x="250" y="87"/>
    </contour>
  </outline>
</glyph>
<glyph name="seven" format="1">
  <advance width="239"/>
  <unicode hex="0037"/>
  <outline>
    <contour>
      <point x="220" y="698" type="line"/>
      <point x="126" y="532"/>
      <point x="101" y="343"/>
      <point x="101" y="0" type="curve"/>
      <point x="97" y="0" type="line"/>
      <point x="97" y="341"/>
      <point x="122" y="531"/>
      <point x="214" y="696" type="curve"/>
      <point x="9" y="696" type="line"/>
      <point x="9" y="700" type="line"/>
      <point x="220" y="700" type="line"/>
    </contour>
  </outline>
</glyph>
<glyph name="eight" format="1">
  <advance width="280"/>
  <unicode hex="0038"/>
  <outline>
    <contour>
      <point x="241" y="190" type="curve" smooth="yes"/>
      <point x="241" y="73"/>
      <point x="199" y="-7"/>
      <point x="140" y="-7" type="curve" smooth="yes"/>
      <point x="81" y="-7"/>
      <point x="39" y="73"/>
      <point x="39" y="190" type="curve" smooth="yes"/>
      <point x="39" y="299"/>
      <point x="75" y="375"/>
      <point x="127" y="385" type="curve"/>
      <point x="77" y="394"/>
      <point x="45" y="462"/>
      <point x="45" y="545" type="curve" smooth="yes"/>
      <point x="45" y="634"/>
      <point x="83" y="707"/>
      <point x="140" y="707" type="curve" smooth="yes"/>
      <point x="197" y="707"/>
      <point x="235" y="634"/>
      <point x="235" y="545" type="curve" smooth="yes"/>
      <point x="235" y="462"/>
      <point x="203" y="394"/>
      <point x="153" y="385" type="curve"/>
      <point x="205" y="375"/>
      <point x="241" y="299"/>
    </contour>
    <contour>
      <point x="231" y="545" type="curve" smooth="yes"/>
      <point x="231" y="632"/>
      <point x="195" y="703"/>
      <point x="140" y="703" type="curve" smooth="yes"/>
      <point x="85" y="703"/>
      <point x="49" y="632"/>
      <point x="49" y="545" type="curve" smooth="yes"/>
      <point x="49" y="458"/>
      <point x="85" y="387"/>
      <point x="140" y="387" type="curve" smooth="yes"/>
      <point x="195" y="387"/>
      <point x="231" y="458"/>
    </contour>
    <contour>
      <point x="237" y="190" type="curve" smooth="yes"/>
      <point x="237" y="305"/>
      <point x="197" y="383"/>
      <point x="140" y="383" type="curve" smooth="yes"/>
      <point x="83" y="383"/>
      <point x="43" y="305"/>
      <point x="43" y="190" type="curve" smooth="yes"/>
      <point x="43" y="75"/>
      <point x="83" y="-3"/>
      <point x="140" y="-3" type="curve" smooth="yes"/>
      <point x="197" y="-3"/>
      <point x="237" y="75"/>
    </contour>
  </outline>
</glyph>
<glyph name="nine" format="1">
  <advance width="284"/>
  <unicode hex="0039"/>
  <outline>
    <contour>
      <point x="244" y="469" type="curve" smooth="yes"/>
      <point x="244" y="222"/>
      <point x="181" y="84"/>
      <point x="97" y="-4" type="curve"/>
      <point x="95" y="-1" type="line"/>
      <point x="170" y="79"/>
      <point x="231" y="205"/>
      <point x="239" y="411" type="curve"/>
      <point x="225" y="323"/>
      <point x="180" y="272"/>
      <point x="134" y="272" type="curve" smooth="yes"/>
      <point x="67" y="272"/>
      <point x="30" y="349"/>
      <point x="30" y="489" type="curve" smooth="yes"/>
      <point x="30" y="615"/>
      <point x="69" y="707"/>
      <point x="133" y="707" type="curve" smooth="yes"/>
      <point x="202" y="707"/>
      <point x="244" y="621"/>
    </contour>
    <contour>
      <point x="240" y="469" type="curve" smooth="yes"/>
      <point x="240" y="617"/>
      <point x="200" y="703"/>
      <point x="133" y="703" type="curve" smooth="yes"/>
      <point x="71" y="703"/>
      <point x="34" y="613"/>
      <point x="34" y="489" type="curve" smooth="yes"/>
      <point x="34" y="353"/>
      <point x="69" y="276"/>
      <point x="134" y="276" type="curve" smooth="yes"/>
      <point x="187" y="276"/>
      <point x="240" y="350"/>
    </contour>
  </outline>
</glyph>
<glyph name="colon" format="1">
  <advance width="62"/>
  <unicode hex="003A"/>
  <outline>
    <contour>
      <point x="33" y="465" type="line"/>
      <point x="29" y="465" type="line"/>
      <point x="29" y="525" type="line"/>
      <point x="33" y="525" type="line"/>
    </contour>
    <contour>
      <point x="33" y="0" type="line"/>
      <point x="29" y="0" type="line"/>
      <point x="29" y="60" type="line"/>
      <point x="33" y="60" type="line"/>
    </contour>
  </outline>
</glyph>
<glyph name="semicolon" format="1">
  <advance width="62"/>
  <unicode hex="003B"/>
  <outline>
    <contour>
      <point x="33" y="465" type="line"/>
      <point x="29" y="465" type="line"/>
      <point x="29" y="525" type="line"/>
      <point x="33" y="525" type="line"/>
    </contour>
    <contour>
      <point x="31" y="60" type="line"/>
      <point x="13" y="-68" type="line"/>
      <point x="9" y="-68" type="line"/>
      <point x="27" y="60" type="line"/>
    </contour>
  </outline>
</glyph>
<glyph name="less" format="1">
  <advance width="207"/>
  <unicode hex="003C"/>
  <outline>
    <contour>
      <point x="169" y="197" type="line"/>
      <point x="166" y="194" type="line"/>
      <point x="18" y="343" type="line"/>
      <point x="18" y="345" type="line"/>
      <point x="166" y="494" type="line"/>
      <point x="169" y="491" type="line"/>
      <point x="23" y="344" type="line"/>
    </contour>
  </outline>
</glyph>
<glyph name="equal" format="1">
  <advance width="314"/>
  <unicode hex="003D"/>
  <outline>
    <contour>
      <point x="279" y="410" type="line"/>
      <point x="35" y="410" type="line"/>
      <point x="35" y="414" type="line"/>
      <point x="279" y="414" type="line"/>
    </contour>
    <contour>
      <point x="279" y="274" type="line"/>
      <point x="35" y="274" type="line"/>
      <point x="35" y="278" type="line"/>
      <point x="279" y="278" type="line"/>
    </contour>
  </outline>
</glyph>
<glyph name="greater" format="1">
  <advance width="207"/>
  <unicode hex="003E"/>
  <outline>
    <contour>
      <point x="189" y="343" type="line"/>
      <point x="41" y="194" type="line"/>
      <point x="38" y="197" type="line"/>
      <point x="184" y="344" type="line"/>
      <point x="38" y="491" type="line"/>
      <point x="41" y="494" type="line"/>
      <point x="189" y="345" type="line"/>
    </contour>
  </outline>
</glyph>
<glyph name="question" format="1">
  <advance width="240"/>
  <unicode hex="003F"/>
  <outline>
    <contour>
      <point x="209" y="574" type="curve" smooth="yes"/>
      <point x="209" y="507"/>
      <point x="186" y="436"/>
      <point x="156" y="377" type="curve" smooth="yes"/>
      <point x="126" y="316"/>
      <point x="116" y="258"/>
      <point x="116" y="130" type="curve"/>
      <point x="112" y="130" type="line"/>
      <point x="112" y="258"/>
      <point x="122" y="318"/>
      <point x="152" y="379" type="curve" smooth="yes"/>
      <point x="182" y="438"/>
      <point x="205" y="507"/>
      <point x="205" y="574" type="curve" smooth="yes"/>
      <point x="205" y="654"/>
      <point x="171" y="703"/>
      <point x="125" y="703" type="curve" smooth="yes"/>
      <point x="78" y="703"/>
      <point x="39" y="652"/>
      <point x="27" y="545" type="curve"/>
      <point x="23" y="545" type="line"/>
      <point x="35" y="656"/>
      <point x="76" y="707"/>
      <point x="125" y="707" type="curve" smooth="yes"/>
      <point x="173" y="707"/>
      <point x="209" y="656"/>
    </contour>
    <contour>
      <point x="116" y="0" type="line"/>
      <point x="112" y="0" type="line"/>
      <point x="112" y="60" type="line"/>
      <point x="116" y="60" type="line"/>
    </contour>
  </outline>
</glyph>
<glyph name="at" format="1">
  <advance width="448"/>
  <unicode hex="0040"/>
  <outline>
    <contour>
      <point x="408" y="360" type="curve" smooth="yes"/>
      <point x="408" y="200"/>
      <point x="373" y="168"/>
      <point x="338" y="168" type="curve" smooth="yes"/>
      <point x="315" y="168"/>
      <point x="298" y="180"/>
      <point x="290" y="205" type="curve"/>
      <point x="265" y="179"/>
      <point x="242" y="168"/>
      <point x="218" y="168" type="curve" smooth="yes"/>
      <point x="175" y="168"/>
      <point x="145" y="198"/>
      <point x="145" y="284" type="curve" smooth="yes"/>
      <point x="145" y="371"/>
      <point x="175" y="400"/>
      <point x="217" y="400" type="curve" smooth="yes"/>
      <point x="243" y="400"/>
      <point x="263" y="391"/>
      <point x="285" y="373" type="curve"/>
      <point x="285" y="473" type="line" smooth="yes"/>
      <point x="285" y="521"/>
      <point x="270" y="542"/>
      <point x="228" y="542" type="curve" smooth="yes"/>
      <point x="203" y="542"/>
      <point x="180" y="530"/>
      <point x="161" y="512" type="curve"/>
      <point x="159" y="514" type="line"/>
      <point x="178" y="534"/>
      <point x="201" y="546"/>
      <point x="228" y="546" type="curve" smooth="yes"/>
      <point x="272" y="546"/>
      <point x="289" y="523"/>
      <point x="289" y="473" type="curve" smooth="yes"/>
      <point x="289" y="243" type="line" smooth="yes"/>
      <point x="289" y="196"/>
      <point x="307" y="172"/>
      <point x="338" y="172" type="curve" smooth="yes"/>
      <point x="373" y="172"/>
      <point x="404" y="204"/>
      <point x="404" y="360" type="curve" smooth="yes"/>
      <point x="404" y="564"/>
      <point x="351" y="703"/>
      <point x="225" y="703" type="curve" smooth="yes"/>
      <point x="100" y="703"/>
      <point x="45" y="571"/>
      <point x="45" y="350" type="curve" smooth="yes"/>
      <point x="45" y="128"/>
      <point x="100" y="-4"/>
      <point x="225" y="-4" type="curve" smooth="yes"/>
      <point x="262" y="-4"/>
      <point x="295" y="10"/>
      <point x="323" y="32" type="curve"/>
      <point x="325" y="29" type="line"/>
      <point x="297" y="7"/>
      <point x="262" y="-8"/>
      <point x="225" y="-8" type="curve" smooth="yes"/>
      <point x="98" y="-8"/>
      <point x="41" y="125"/>
      <point x="41" y="350" type="curve" smooth="yes"/>
      <point x="41" y="574"/>
      <point x="98" y="707"/>
      <point x="225" y="707" type="curve" smooth="yes"/>
      <point x="353" y="707"/>
      <point x="408" y="566"/>
    </contour>
    <contour>
      <point x="289" y="209" type="curve"/>
      <point x="287" y="219"/>
      <point x="285" y="230"/>
      <point x="285" y="243" type="curve" smooth="yes"/>
      <point x="285" y="368" type="line"/>
      <point x="262" y="387"/>
      <point x="244" y="396"/>
      <point x="217" y="396" type="curve" smooth="yes"/>
      <point x="177" y="396"/>
      <point x="149" y="367"/>
      <point x="149" y="284" type="curve" smooth="yes"/>
      <point x="149" y="202"/>
      <point x="177" y="172"/>
      <point x="218" y="172" type="curve" smooth="yes"/>
      <point x="243" y="172"/>
      <point x="264" y="184"/>
    </contour>
  </outline>
</glyph>
<glyph name="A" format="1">
  <advance width="326"/>
  <unicode hex="0041"/>
  <outline>
    <contour>
      <point x="287" y="0" type="line"/>
      <point x="283" y="0" type="line"/>
      <point x="246" y="214" type="line"/>
      <point x="80" y="214" type="line"/>
      <point x="43" y="0" type="line"/>
      <point x="39" y="0" type="line"/>
      <point x="161" y="703" type="line"/>
      <point x="165" y="703" type="line"/>
    </contour>
    <contour>
      <point x="245" y="218" type="line"/>
      <point x="163" y="694" type="line"/>
      <point x="81" y="218" type="line"/>
    </contour>
  </outline>
</glyph>
<glyph name="B" format="1">
  <advance width="289"/>
  <unicode hex="0042"/>
  <outline>
    <contour>
      <point x="258" y="185" type="curve" smooth="yes"/>
      <point x="258" y="55"/>
      <point x="204" y="0"/>
      <point x="112" y="0" type="curve" smooth="yes"/>
      <point x="53" y="0" type="line"/>
      <point x="53" y="700" type="line"/>
      <point x="109" y="700" type="line" smooth="yes"/>
      <point x="197" y="700"/>
      <point x="242" y="650"/>
      <point x="242" y="543" type="curve" smooth="yes"/>
      <point x="242" y="447"/>
      <point x="203" y="390"/>
      <point x="132" y="377" type="curve"/>
      <point x="210" y="367"/>
      <point x="258" y="308"/>
    </contour>
    <contour>
      <point x="238" y="543" type="curve" smooth="yes"/>
      <point x="238" y="648"/>
      <point x="193" y="696"/>
      <point x="109" y="696" type="curve" smooth="yes"/>
      <point x="57" y="696" type="line"/>
      <point x="57" y="379" type="line"/>
      <point x="104" y="379" type="line" smooth="yes"/>
      <point x="191" y="379"/>
      <point x="238" y="438"/>
    </contour>
    <contour>
      <point x="254" y="185" type="curve" smooth="yes"/>
      <point x="254" y="317"/>
      <point x="198" y="375"/>
      <point x="107" y="375" type="curve" smooth="yes"/>
      <point x="57" y="375" type="line"/>
      <point x="57" y="4" type="line"/>
      <point x="112" y="4" type="line" smooth="yes"/>
      <point x="202" y="4"/>
      <point x="254" y="59"/>
    </contour>
  </outline>
</glyph>
<glyph name="C" format="1">
  <advance width="287"/>
  <unicode hex="0043"/>
  <outline>
    <contour>
      <point x="250" y="163" type="line"/>
      <point x="231" y="33"/>
      <point x="199" y="-7"/>
      <point x="154" y="-7" type="curve" smooth="yes"/>
      <point x="90" y="-7"/>
      <point x="43" y="77"/>
      <point x="43" y="350" type="curve" smooth="yes"/>
      <point x="43" y="623"/>
      <point x="90" y="707"/>
      <point x="154" y="707" type="curve" smooth="yes"/>
      <point x="199" y="707"/>
      <point x="231" y="667"/>
      <point x="250" y="537" type="curve"/>
      <point x="246" y="537" type="line"/>
      <point x="227" y="663"/>
      <point x="197" y="703"/>
      <point x="154" y="703" type="curve" smooth="yes"/>
      <point x="92" y="703"/>
      <point x="47" y="619"/>
      <point x="47" y="350" type="curve" smooth="yes"/>
      <point x="47" y="81"/>
      <point x="92" y="-3"/>
      <point x="154" y="-3" type="curve" smooth="yes"/>
      <point x="197" y="-3"/>
      <point x="227" y="37"/>
      <point x="246" y="163" type="curve"/>
    </contour>
  </outline>
</glyph>
<glyph name="D" format="1">
  <advance width="308"/>
  <unicode hex="0044"/>
  <outline>
    <contour>
      <point x="269" y="350" type="curve" smooth="yes"/>
      <point x="269" y="85"/>
      <point x="224" y="0"/>
      <point x="113" y="0" type="curve" smooth="yes"/>
      <point x="53" y="0" type="line"/>
      <point x="53" y="700" type="line"/>
      <point x="113" y="700" type="line" smooth="yes"/>
      <point x="224" y="700"/>
      <point x="269" y="615"/>
    </contour>
    <contour>
      <point x="265" y="350" type="curve" smooth="yes"/>
      <point x="265" y="611"/>
      <point x="222" y="696"/>
      <point x="113" y="696" type="curve" smooth="yes"/>
      <point x="57" y="696" type="line"/>
      <point x="57" y="4" type="line"/>
      <point x="113" y="4" type="line" smooth="yes"/>
      <point x="222" y="4"/>
      <point x="265" y="89"/>
    </contour>
  </outline>
</glyph>
<glyph name="E" format="1">
  <advance width="246"/>
  <unicode hex="0045"/>
  <outline>
    <contour>
      <point x="226" y="0" type="line"/>
      <point x="53" y="0" type="line"/>
      <point x="53" y="700" type="line"/>
      <point x="216" y="700" type="line"/>
      <point x="216" y="696" type="line"/>
      <point x="57" y="696" type="line"/>
      <point x="57" y="376" type="line"/>
      <point x="168" y="376" type="line"/>
      <point x="168" y="372" type="line"/>
      <point x="57" y="372" type="line"/>
      <point x="57" y="4" type="line"/>
      <point x="226" y="4" type="line"/>
    </contour>
  </outline>
</glyph>
<glyph name="F" format="1">
  <advance width="237"/>
  <unicode hex="0046"/>
  <outline>
    <contour>
      <point x="222" y="696" type="line"/>
      <point x="57" y="696" type="line"/>
      <point x="57" y="369" type="line"/>
      <point x="175" y="369" type="line"/>
      <point x="175" y="365" type="line"/>
      <point x="57" y="365" type="line"/>
      <point x="57" y="0" type="line"/>
      <point x="53" y="0" type="line"/>
      <point x="53" y="700" type="line"/>
      <point x="222" y="700" type="line"/>
    </contour>
  </outline>
</glyph>
<glyph name="G" format="1">
  <advance width="298"/>
  <unicode hex="0047"/>
  <outline>
    <contour>
      <point x="259" y="258" type="line" smooth="yes"/>
      <point x="259" y="72"/>
      <point x="216" y="-7"/>
      <point x="157" y="-7" type="curve" smooth="yes"/>
      <point x="89" y="-7"/>
      <point x="43" y="77"/>
      <point x="43" y="350" type="curve" smooth="yes"/>
      <point x="43" y="623"/>
      <point x="90" y="707"/>
      <point x="154" y="707" type="curve" smooth="yes"/>
      <point x="199" y="707"/>
      <point x="231" y="667"/>
      <point x="250" y="537" type="curve"/>
      <point x="246" y="537" type="line"/>
      <point x="227" y="663"/>
      <point x="197" y="703"/>
      <point x="154" y="703" type="curve" smooth="yes"/>
      <point x="92" y="703"/>
      <point x="47" y="619"/>
      <point x="47" y="350" type="curve" smooth="yes"/>
      <point x="47" y="81"/>
      <point x="91" y="-3"/>
      <point x="157" y="-3" type="curve" smooth="yes"/>
      <point x="214" y="-3"/>
      <point x="255" y="76"/>
      <point x="255" y="258" type="curve" smooth="yes"/>
      <point x="255" y="331" type="line"/>
      <point x="166" y="331" type="line"/>
      <point x="166" y="335" type="line"/>
      <point x="259" y="335" type="line"/>
    </contour>
  </outline>
</glyph>
<glyph name="H" format="1">
  <advance width="324"/>
  <unicode hex="0048"/>
  <outline>
    <contour>
      <point x="271" y="0" type="line"/>
      <point x="267" y="0" type="line"/>
      <point x="267" y="372" type="line"/>
      <point x="57" y="372" type="line"/>
      <point x="57" y="0" type="line"/>
      <point x="53" y="0" type="line"/>
      <point x="53" y="700" type="line"/>
      <point x="57" y="700" type="line"/>
      <point x="57" y="376" type="line"/>
      <point x="267" y="376" type="line"/>
      <point x="267" y="700" type="line"/>
      <point x="271" y="700" type="line"/>
    </contour>
  </outline>
</glyph>
<glyph name="J" format="1">
  <advance width="275"/>
  <unicode hex="004A"/>
  <outline>
    <contour>
      <point x="224" y="182" type="line" smooth="yes"/>
      <point x="224" y="51"/>
      <point x="191" y="-7"/>
      <point x="124" y="-7" type="curve" smooth="yes"/>
      <point x="64" y="-7"/>
      <point x="26" y="46"/>
      <point x="21" y="168" type="curve"/>
      <point x="25" y="168" type="line"/>
      <point x="30" y="50"/>
      <point x="66" y="-3"/>
      <point x="124" y="-3" type="curve" smooth="yes"/>
      <point x="189" y="-3"/>
      <point x="220" y="55"/>
      <point x="220" y="182" type="curve" smooth="yes"/>
      <point x="220" y="700" type="line"/>
      <point x="224" y="700" type="line"/>
    </contour>
  </outline>
</glyph>
<glyph name="K" format="1">
  <advance width="276"/>
  <unicode hex="004B"/>
  <outline>
    <contour>
      <point x="258" y="0" type="line"/>
      <point x="254" y="-1" type="line"/>
      <point x="109" y="423" type="line"/>
      <point x="57" y="318" type="line"/>
      <point x="57" y="0" type="line"/>
      <point x="53" y="0" type="line"/>
      <point x="53" y="700" type="line"/>
      <point x="57" y="700" type="line"/>
      <point x="57" y="327" type="line"/>
      <point x="242" y="701" type="line"/>
      <point x="246" y="700" type="line"/>
      <point x="111" y="428" type="line"/>
    </contour>
  </outline>
</glyph>
<glyph name="L" format="1">
  <advance width="213"/>
  <unicode hex="004C"/>
  <outline>
    <contour>
      <point x="205" y="0" type="line"/>
      <point x="53" y="0" type="line"/>
      <point x="53" y="700" type="line"/>
      <point x="57" y="700" type="line"/>
      <point x="57" y="4" type="line"/>
      <point x="205" y="4" type="line"/>
    </contour>
  </outline>
</glyph>
<glyph name="M" format="1">
  <advance width="392"/>
  <unicode hex="004D"/>
  <outline>
    <contour>
      <point x="339" y="0" type="line"/>
      <point x="335" y="0" type="line"/>
      <point x="335" y="679" type="line"/>
      <point x="198" y="0" type="line"/>
      <point x="194" y="0" type="line"/>
      <point x="57" y="679" type="line"/>
      <point x="57" y="0" type="line"/>
      <point x="53" y="0" type="line"/>
      <point x="53" y="700" type="line"/>
      <point x="57" y="700" type="line"/>
      <point x="196" y="10" type="line"/>
      <point x="335" y="700" type="line"/>
      <point x="339" y="700" type="line"/>
    </contour>
  </outline>
</glyph>
<glyph name="N" format="1">
  <advance width="322"/>
  <unicode hex="004E"/>
  <outline>
    <contour>
      <point x="269" y="0" type="line"/>
      <point x="265" y="0" type="line"/>
      <point x="57" y="686" type="line"/>
      <point x="57" y="0" type="line"/>
      <point x="53" y="0" type="line"/>
      <point x="53" y="700" type="line"/>
      <point x="57" y="700" type="line"/>
      <point x="265" y="14" type="line"/>
      <point x="265" y="700" type="line"/>
      <point x="269" y="700" type="line"/>
    </contour>
  </outline>
</glyph>
<glyph name="O" format="1">
  <advance width="314"/>
  <unicode hex="004F"/>
  <outline>
    <contour>
      <point x="271" y="350" type="curve" smooth="yes"/>
      <point x="271" y="77"/>
      <point x="225" y="-7"/>
      <point x="157" y="-7" type="curve" smooth="yes"/>
      <point x="89" y="-7"/>
      <point x="43" y="77"/>
      <point x="43" y="350" type="curve" smooth="yes"/>
      <point x="43" y="623"/>
      <point x="89" y="707"/>
      <point x="157" y="707" type="curve" smooth="yes"/>
      <point x="225" y="707"/>
      <point x="271" y="623"/>
    </contour>
    <contour>
      <point x="267" y="350" type="curve" smooth="yes"/>
      <point x="267" y="619"/>
      <point x="223" y="703"/>
      <point x="157" y="703" type="curve" smooth="yes"/>
      <point x="91" y="703"/>
      <point x="47" y="619"/>
      <point x="47" y="350" type="curve" smooth="yes"/>
      <point x="47" y="81"/>
      <point x="91" y="-3"/>
      <point x="157" y="-3" type="curve" smooth="yes"/>
      <point x="223" y="-3"/>
      <point x="267" y="81"/>
    </contour>
  </outline>
</glyph>
<glyph name="P" format="1">
  <advance width="276"/>
  <unicode hex="0050"/>
  <outline>
    <contour>
      <point x="249" y="524" type="curve" smooth="yes"/>
      <point x="249" y="386"/>
      <point x="189" y="348"/>
      <point x="93" y="348" type="curve" smooth="yes"/>
      <point x="57" y="348" type="line"/>
      <point x="57" y="0" type="line"/>
      <point x="53" y="0" type="line"/>
      <point x="53" y="700" type="line"/>
      <point x="93" y="700" type="line" smooth="yes"/>
      <point x="189" y="700"/>
      <point x="249" y="662"/>
    </contour>
    <contour>
      <point x="245" y="524" type="curve" smooth="yes"/>
      <point x="245" y="658"/>
      <point x="187" y="696"/>
      <point x="93" y="696" type="curve" smooth="yes"/>
      <point x="57" y="696" type="line"/>
      <point x="57" y="352" type="line"/>
      <point x="93" y="352" type="line" smooth="yes"/>
      <point x="187" y="352"/>
      <point x="245" y="390"/>
    </contour>
  </outline>
</glyph>
<glyph name="Q" format="1">
  <advance width="314"/>
  <unicode hex="0051"/>
  <outline>
    <contour>
      <point x="271" y="-4" type="line"/>
      <point x="269" y="-7" type="line"/>
      <point x="228" y="42" type="line"/>
      <point x="209" y="7"/>
      <point x="185" y="-7"/>
      <point x="157" y="-7" type="curve" smooth="yes"/>
      <point x="89" y="-7"/>
      <point x="43" y="77"/>
      <point x="43" y="350" type="curve" smooth="yes"/>
      <point x="43" y="623"/>
      <point x="89" y="707"/>
      <point x="157" y="707" type="curve" smooth="yes"/>
      <point x="225" y="707"/>
      <point x="271" y="623"/>
      <point x="271" y="350" type="curve" smooth="yes"/>
      <point x="271" y="192"/>
      <point x="256" y="98"/>
      <point x="230" y="46" type="curve"/>
    </contour>
    <contour>
      <point x="267" y="350" type="curve" smooth="yes"/>
      <point x="267" y="619"/>
      <point x="223" y="703"/>
      <point x="157" y="703" type="curve" smooth="yes"/>
      <point x="91" y="703"/>
      <point x="47" y="619"/>
      <point x="47" y="350" type="curve" smooth="yes"/>
      <point x="47" y="81"/>
      <point x="91" y="-3"/>
      <point x="157" y="-3" type="curve" smooth="yes"/>
      <point x="184" y="-3"/>
      <point x="207" y="11"/>
      <point x="225" y="45" type="curve"/>
      <point x="174" y="107" type="line"/>
      <point x="176" y="110" type="line"/>
      <point x="227" y="49" type="line"/>
      <point x="253" y="100"/>
      <point x="267" y="194"/>
    </contour>
  </outline>
</glyph>
<glyph name="R" format="1">
  <advance width="287"/>
  <unicode hex="0052"/>
  <outline>
    <contour>
      <point x="258" y="0" type="line"/>
      <point x="254" y="0" type="line"/>
      <point x="145" y="363" type="line"/>
      <point x="130" y="360"/>
      <point x="112" y="358"/>
      <point x="93" y="358" type="curve" smooth="yes"/>
      <point x="57" y="358" type="line"/>
      <point x="57" y="0" type="line"/>
      <point x="53" y="0" type="line"/>
      <point x="53" y="700" type="line"/>
      <point x="93" y="700" type="line" smooth="yes"/>
      <point x="189" y="700"/>
      <point x="249" y="663"/>
      <point x="249" y="533" type="curve" smooth="yes"/>
      <point x="249" y="430"/>
      <point x="212" y="381"/>
      <point x="149" y="364" type="curve"/>
    </contour>
    <contour>
      <point x="245" y="533" type="curve" smooth="yes"/>
      <point x="245" y="659"/>
      <point x="187" y="696"/>
      <point x="93" y="696" type="curve" smooth="yes"/>
      <point x="57" y="696" type="line"/>
      <point x="57" y="362" type="line"/>
      <point x="93" y="362" type="line" smooth="yes"/>
      <point x="187" y="362"/>
      <point x="245" y="406"/>
    </contour>
  </outline>
</glyph>
<glyph name="S" format="1">
  <advance width="274"/>
  <unicode hex="0053"/>
  <outline>
    <contour>
      <point x="235" y="145" type="curve" smooth="yes"/>
      <point x="235" y="50"/>
      <point x="200" y="-7"/>
      <point x="134" y="-7" type="curve" smooth="yes"/>
      <point x="77" y="-7"/>
      <point x="44" y="39"/>
      <point x="36" y="145" type="curve"/>
      <point x="40" y="145" type="line"/>
      <point x="48" y="43"/>
      <point x="79" y="-3"/>
      <point x="134" y="-3" type="curve" smooth="yes"/>
      <point x="197" y="-3"/>
      <point x="231" y="52"/>
      <point x="231" y="145" type="curve" smooth="yes"/>
      <point x="231" y="224"/>
      <point x="221" y="278"/>
      <point x="135" y="376" type="curve" smooth="yes"/>
      <point x="59" y="463"/>
      <point x="41" y="512"/>
      <point x="41" y="572" type="curve" smooth="yes"/>
      <point x="41" y="659"/>
      <point x="78" y="707"/>
      <point x="134" y="707" type="curve" smooth="yes"/>
      <point x="183" y="707"/>
      <point x="216" y="673"/>
      <point x="233" y="574" type="curve"/>
      <point x="229" y="574" type="line"/>
      <point x="212" y="669"/>
      <point x="181" y="703"/>
      <point x="134" y="703" type="curve" smooth="yes"/>
      <point x="80" y="703"/>
      <point x="45" y="657"/>
      <point x="45" y="572" type="curve" smooth="yes"/>
      <point x="45" y="512"/>
      <point x="63" y="465"/>
      <point x="139" y="378" type="curve" smooth="yes"/>
      <point x="225" y="280"/>
      <point x="235" y="224"/>
    </contour>
  </outline>
</glyph>
<glyph name="T" format="1">
  <advance width="256"/>
  <unicode hex="0054"/>
  <outline>
    <contour>
      <point x="235" y="696" type="line"/>
      <point x="130" y="696" type="line"/>
      <point x="130" y="0" type="line"/>
      <point x="126" y="0" type="line"/>
      <point x="126" y="696" type="line"/>
      <point x="21" y="696" type="line"/>
      <point x="21" y="700" type="line"/>
      <point x="235" y="700" type="line"/>
    </contour>
  </outline>
</glyph>
<glyph name="U" format="1">
  <advance width="320"/>
  <unicode hex="0055"/>
  <outline>
    <contour>
      <point x="269" y="135" type="line" smooth="yes"/>
      <point x="269" y="43"/>
      <point x="232" y="-7"/>
      <point x="160" y="-7" type="curve" smooth="yes"/>
      <point x="88" y="-7"/>
      <point x="51" y="43"/>
      <point x="51" y="135" type="curve" smooth="yes"/>
      <point x="51" y="700" type="line"/>
      <point x="55" y="700" type="line"/>
      <point x="55" y="135" type="line" smooth="yes"/>
      <point x="55" y="45"/>
      <point x="91" y="-3"/>
      <point x="160" y="-3" type="curve" smooth="yes"/>
      <point x="229" y="-3"/>
      <point x="265" y="45"/>
      <point x="265" y="135" type="curve" smooth="yes"/>
      <point x="265" y="700" type="line"/>
      <point x="269" y="700" type="line"/>
    </contour>
  </outline>
</glyph>
<glyph name="V" format="1">
  <advance width="316"/>
  <unicode hex="0056"/>
  <outline>
    <contour>
      <point x="277" y="700" type="line"/>
      <point x="160" y="-3" type="line"/>
      <point x="156" y="-3" type="line"/>
      <point x="39" y="700" type="line"/>
      <point x="43" y="700" type="line"/>
      <point x="158" y="6" type="line"/>
      <point x="273" y="700" type="line"/>
    </contour>
  </outline>
</glyph>
<glyph name="W" format="1">
  <advance width="433"/>
  <unicode hex="0057"/>
  <outline>
    <contour>
      <point x="393" y="700" type="line"/>
      <point x="312" y="-3" type="line"/>
      <point x="308" y="-3" type="line"/>
      <point x="217" y="686" type="line"/>
      <point x="126" y="-3" type="line"/>
      <point x="122" y="-3" type="line"/>
      <point x="41" y="700" type="line"/>
      <point x="45" y="700" type="line"/>
      <point x="124" y="11" type="line"/>
      <point x="215" y="700" type="line"/>
      <point x="219" y="700" type="line"/>
      <point x="310" y="11" type="line"/>
      <point x="389" y="700" type="line"/>
    </contour>
  </outline>
</glyph>
<glyph name="X" format="1">
  <advance width="280"/>
  <unicode hex="0058"/>
  <outline>
    <contour>
      <point x="250" y="0" type="line"/>
      <point x="246" y="0" type="line"/>
      <point x="140" y="357" type="line"/>
      <point x="34" y="0" type="line"/>
      <point x="30" y="0" type="line"/>
      <point x="138" y="363" type="line"/>
      <point x="38" y="700" type="line"/>
      <point x="42" y="700" type="line"/>
      <point x="140" y="370" type="line"/>
      <point x="238" y="700" type="line"/>
      <point x="242" y="700" type="line"/>
      <point x="142" y="363" type="line"/>
    </contour>
  </outline>
</glyph>
<glyph name="Y" format="1">
  <advance width="282"/>
  <unicode hex="0059"/>
  <outline>
    <contour>
      <point x="258" y="700" type="line"/>
      <point x="143" y="301" type="line"/>
      <point x="143" y="0" type="line"/>
      <point x="139" y="0" type="line"/>
      <point x="139" y="301" type="line"/>
      <point x="24" y="700" type="line"/>
      <point x="28" y="700" type="line"/>
      <point x="141" y="308" type="line"/>
      <point x="254" y="700" type="line"/>
    </contour>
  </outline>
</glyph>
<glyph name="Z" format="1">
  <advance width="258"/>
  <unicode hex="005A"/>
  <outline>
    <contour>
      <point x="229" y="0" type="line"/>
      <point x="25" y="0" type="line"/>
      <point x="25" y="4" type="line"/>
      <point x="225" y="696" type="line"/>
      <point x="40" y="696" type="line"/>
      <point x="40" y="700" type="line"/>
      <point x="229" y="700" type="line"/>
      <point x="229" y="696" type="line"/>
      <point x="29" y="4" type="line"/>
      <point x="229" y="4" type="line"/>
    </contour>
  </outline>
</glyph>
<glyph name="bracketleft" format="1">
  <advance width="162"/>
  <unicode hex="005B"/>
  <outline>
    <contour>
      <point x="146" y="-110" type="line"/>
      <point x="55" y="-110" type="line"/>
      <point x="55" y="700" type="line"/>
      <point x="146" y="700" type="line"/>
      <point x="146" y="696" type="line"/>
      <point x="59" y="696" type="line"/>
      <point x="59" y="-106" type="line"/>
      <point x="146" y="-106" type="line"/>
    </contour>
  </outline>
</glyph>
<glyph name="backslash" format="1">
  <advance width="162"/>
  <unicode hex="005C"/>
  <outline>
    <contour>
      <point x="166" y="-90" type="line"/>
      <point x="162" y="-90" type="line"/>
      <point x="-4" y="790" type="line"/>
      <point x="0" y="790" type="line"/>
    </contour>
  </outline>
</glyph>
<glyph name="bracketright" format="1">
  <advance width="162"/>
  <unicode hex="005D"/>
  <outline>
    <contour>
      <point x="107" y="-110" type="line"/>
      <point x="16" y="-110" type="line"/>
      <point x="16" y="-106" type="line"/>
      <point x="103" y="-106" type="line"/>
      <point x="103" y="696" type="line"/>
      <point x="16" y="696" type="line"/>
      <point x="16" y="700" type="line"/>
      <point x="107" y="700" type="line"/>
    </contour>
  </outline>
</glyph>
<glyph name="asciicircum" format="1">
  <advance width="252"/>
  <unicode hex="005E"/>
  <outline>
    <contour>
      <point x="222" y="382" type="line"/>
      <point x="218" y="382" type="line"/>
      <point x="126" y="693" type="line"/>
      <point x="34" y="382" type="line"/>
      <point x="30" y="382" type="line"/>
      <point x="124" y="700" type="line"/>
      <point x="128" y="700" type="line"/>
    </contour>
  </outline>
</glyph>
<glyph name="underscore" format="1">
  <advance width="232"/>
  <unicode hex="005F"/>
  <outline>
    <contour>
      <point x="243" y="-107" type="line"/>
      <point x="-11" y="-107" type="line"/>
      <point x="-11" y="-103" type="line"/>
      <point x="243" y="-103" type="line"/>
    </contour>
  </outline>
</glyph>
<glyph name="grave" format="1">
  <advance width="312"/>
  <unicode hex="0060"/>
  <outline>
    <contour>
      <point x="82" y="762" type="line"/>
      <point x="163" y="602" type="line"/>
      <point x="159" y="602" type="line"/>
      <point x="78" y="762" type="line"/>
    </contour>
  </outline>
</glyph>
<glyph name="a" format="1">
  <advance width="268"/>
  <unicode hex="0061"/>
  <outline>
    <contour>
      <point x="223" y="0" type="line"/>
      <point x="219" y="0" type="line"/>
      <point x="219" y="50" type="line"/>
      <point x="188" y="11"/>
      <point x="155" y="-6"/>
      <point x="124" y="-6" type="curve" smooth="yes"/>
      <point x="67" y="-6"/>
      <point x="28" y="36"/>
      <point x="28" y="159" type="curve" smooth="yes"/>
      <point x="28" y="282"/>
      <point x="69" y="324"/>
      <point x="125" y="324" type="curve" smooth="yes"/>
      <point x="162" y="324"/>
      <point x="189" y="310"/>
      <point x="219" y="284" type="curve"/>
      <point x="219" y="424" type="line" smooth="yes"/>
      <point x="219" y="494"/>
      <point x="202" y="528"/>
      <point x="145" y="528" type="curve" smooth="yes"/>
      <point x="110" y="528"/>
      <point x="79" y="514"/>
      <point x="51" y="485" type="curve"/>
      <point x="48" y="487" type="line"/>
      <point x="76" y="517"/>
      <point x="108" y="532"/>
      <point x="145" y="532" type="curve" smooth="yes"/>
      <point x="204" y="532"/>
      <point x="223" y="498"/>
      <point x="223" y="424" type="curve" smooth="yes"/>
    </contour>
    <contour>
      <point x="219" y="57" type="curve"/>
      <point x="219" y="279" type="line"/>
      <point x="188" y="305"/>
      <point x="161" y="320"/>
      <point x="125" y="320" type="curve" smooth="yes"/>
      <point x="71" y="320"/>
      <point x="32" y="278"/>
      <point x="32" y="159" type="curve" smooth="yes"/>
      <point x="32" y="40"/>
      <point x="69" y="-2"/>
      <point x="124" y="-2" type="curve" smooth="yes"/>
      <point x="155" y="-2"/>
      <point x="189" y="16"/>
    </contour>
  </outline>
</glyph>
<glyph name="c" format="1">
  <advance width="257"/>
  <unicode hex="0063"/>
  <outline>
    <contour>
      <point x="235" y="120" type="line"/>
      <point x="220" y="37"/>
      <point x="189" y="-7"/>
      <point x="142" y="-7" type="curve" smooth="yes"/>
      <point x="69" y="-7"/>
      <point x="36" y="106"/>
      <point x="36" y="262" type="curve" smooth="yes"/>
      <point x="36" y="418"/>
      <point x="69" y="532"/>
      <point x="142" y="532" type="curve" smooth="yes"/>
      <point x="194" y="532"/>
      <point x="222" y="471"/>
      <point x="233" y="401" type="curve"/>
      <point x="229" y="401" type="line"/>
      <point x="218" y="469"/>
      <point x="192" y="528"/>
      <point x="142" y="528" type="curve" smooth="yes"/>
      <point x="73" y="528"/>
      <point x="40" y="416"/>
      <point x="40" y="262" type="curve" smooth="yes"/>
      <point x="40" y="108"/>
      <point x="73" y="-3"/>
      <point x="142" y="-3" type="curve" smooth="yes"/>
      <point x="187" y="-3"/>
      <point x="216" y="41"/>
      <point x="231" y="120" type="curve"/>
    </contour>
  </outline>
</glyph>
<glyph name="e" format="1">
  <advance width="276"/>
  <unicode hex="0065"/>
  <outline>
    <contour>
      <point x="241" y="263" type="curve"/>
      <point x="40" y="263" type="line"/>
      <point x="40" y="262" type="line" smooth="yes"/>
      <point x="40" y="108"/>
      <point x="69" y="-3"/>
      <point x="142" y="-3" type="curve" smooth="yes"/>
      <point x="185" y="-3"/>
      <point x="215" y="31"/>
      <point x="230" y="105" type="curve"/>
      <point x="234" y="105" type="line"/>
      <point x="219" y="27"/>
      <point x="187" y="-7"/>
      <point x="142" y="-7" type="curve" smooth="yes"/>
      <point x="65" y="-7"/>
      <point x="36" y="106"/>
      <point x="36" y="262" type="curve" smooth="yes"/>
      <point x="36" y="418"/>
      <point x="65" y="532"/>
      <point x="142" y="532" type="curve" smooth="yes"/>
      <point x="214" y="532"/>
      <point x="241" y="412"/>
      <point x="241" y="274" type="curve" smooth="yes"/>
      <point x="241" y="272"/>
      <point x="241" y="265"/>
    </contour>
    <contour>
      <point x="237" y="267" type="line"/>
      <point x="237" y="269"/>
      <point x="237" y="273"/>
      <point x="237" y="274" type="curve" smooth="yes"/>
      <point x="237" y="410"/>
      <point x="210" y="528"/>
      <point x="142" y="528" type="curve" smooth="yes"/>
      <point x="70" y="528"/>
      <point x="41" y="418"/>
      <point x="40" y="267" type="curve"/>
    </contour>
  </outline>
</glyph>
<glyph name="f" format="1">
  <advance width="142"/>
  <unicode hex="0066"/>
  <outline>
    <contour>
      <point x="154" y="716" type="line"/>
      <point x="142" y="721"/>
      <point x="135" y="722"/>
      <point x="121" y="722" type="curve" smooth="yes"/>
      <point x="88" y="722"/>
      <point x="64" y="699"/>
      <point x="64" y="646" type="curve" smooth="yes"/>
      <point x="64" y="525" type="line"/>
      <point x="139" y="525" type="line"/>
      <point x="139" y="521" type="line"/>
      <point x="64" y="521" type="line"/>
      <point x="64" y="0" type="line"/>
      <point x="60" y="0" type="line"/>
      <point x="60" y="521" type="line"/>
      <point x="11" y="521" type="line"/>
      <point x="11" y="525" type="line"/>
      <point x="60" y="525" type="line"/>
      <point x="60" y="646" type="line" smooth="yes"/>
      <point x="60" y="703"/>
      <point x="86" y="726"/>
      <point x="121" y="726" type="curve" smooth="yes"/>
      <point x="135" y="726"/>
      <point x="141" y="725"/>
      <point x="154" y="721" type="curve"/>
    </contour>
  </outline>
</glyph>
<glyph name="h" format="1">
  <advance width="287"/>
  <unicode hex="0068"/>
  <outline>
    <contour>
      <point x="242" y="0" type="line"/>
      <point x="238" y="0" type="line"/>
      <point x="238" y="403" type="line" smooth="yes"/>
      <point x="238" y="488"/>
      <point x="216" y="528"/>
      <point x="153" y="528" type="curve" smooth="yes"/>
      <point x="116" y="528"/>
      <point x="82" y="509"/>
      <point x="52" y="481" type="curve"/>
      <point x="52" y="0" type="line"/>
      <point x="48" y="0" type="line"/>
      <point x="48" y="727" type="line"/>
      <point x="52" y="729" type="line"/>
      <point x="52" y="485" type="line"/>
      <point x="81" y="514"/>
      <point x="117" y="532"/>
      <point x="153" y="532" type="curve" smooth="yes"/>
      <point x="218" y="532"/>
      <point x="242" y="492"/>
      <point x="242" y="403" type="curve" smooth="yes"/>
    </contour>
  </outline>
</glyph>
<glyph name="i" format="1">
  <advance width="112"/>
  <unicode hex="0069"/>
  <outline>
    <contour>
      <point x="58" y="640" type="line"/>
      <point x="54" y="640" type="line"/>
      <point x="54" y="700" type="line"/>
      <point x="58" y="700" type="line"/>
    </contour>
    <contour>
      <point x="58" y="0" type="line"/>
      <point x="54" y="0" type="line"/>
      <point x="54" y="525" type="line"/>
      <point x="58" y="525" type="line"/>
    </contour>
  </outline>
</glyph>
<glyph name="j" format="1">
  <advance width="112"/>
  <unicode hex="006A"/>
  <outline>
    <contour>
      <point x="58" y="640" type="line"/>
      <point x="54" y="640" type="line"/>
      <point x="54" y="700" type="line"/>
      <point x="58" y="700" type="line"/>
    </contour>
    <contour>
      <point x="58" y="-35" type="line" smooth="yes"/>
      <point x="58" y="-132"/>
      <point x="40" y="-158"/>
      <point x="2" y="-187" type="curve"/>
      <point x="0" y="-183" type="line"/>
      <point x="36" y="-156"/>
      <point x="54" y="-130"/>
      <point x="54" y="-35" type="curve" smooth="yes"/>
      <point x="54" y="525" type="line"/>
      <point x="58" y="525" type="line"/>
    </contour>
  </outline>
</glyph>
<glyph name="k" format="1">
  <advance width="247"/>
  <unicode hex="006B"/>
  <outline>
    <contour>
      <point x="236" y="0" type="line"/>
      <point x="231" y="0" type="line"/>
      <point x="106" y="304" type="line"/>
      <point x="52" y="201" type="line"/>
      <point x="52" y="0" type="line"/>
      <point x="48" y="0" type="line"/>
      <point x="48" y="727" type="line"/>
      <point x="52" y="729" type="line"/>
      <point x="52" y="210" type="line"/>
      <point x="219" y="525" type="line"/>
      <point x="224" y="525" type="line"/>
      <point x="109" y="309" type="line"/>
    </contour>
  </outline>
</glyph>
<glyph name="m" format="1">
  <advance width="461"/>
  <unicode hex="006D"/>
  <outline>
    <contour>
      <point x="416" y="0" type="line"/>
      <point x="412" y="0" type="line"/>
      <point x="412" y="408" type="line" smooth="yes"/>
      <point x="412" y="490"/>
      <point x="389" y="528"/>
      <point x="328" y="528" type="curve" smooth="yes"/>
      <point x="291" y="528"/>
      <point x="254" y="510"/>
      <point x="225" y="482" type="curve"/>
      <point x="231" y="464"/>
      <point x="234" y="442"/>
      <point x="234" y="414" type="curve" smooth="yes"/>
      <point x="234" y="0" type="line"/>
      <point x="230" y="0" type="line"/>
      <point x="230" y="414" type="line" smooth="yes"/>
      <point x="230" y="492"/>
      <point x="209" y="528"/>
      <point x="149" y="528" type="curve" smooth="yes"/>
      <point x="114" y="528"/>
      <point x="81" y="510"/>
      <point x="52" y="483" type="curve"/>
      <point x="52" y="0" type="line"/>
      <point x="48" y="0" type="line"/>
      <point x="48" y="525" type="line"/>
      <point x="52" y="525" type="line"/>
      <point x="52" y="487" type="line"/>
      <point x="80" y="515"/>
      <point x="113" y="532"/>
      <point x="149" y="532" type="curve" smooth="yes"/>
      <point x="189" y="532"/>
      <point x="211" y="518"/>
      <point x="224" y="486" type="curve"/>
      <point x="254" y="515"/>
      <point x="292" y="532"/>
      <point x="328" y="532" type="curve" smooth="yes"/>
      <point x="391" y="532"/>
      <point x="416" y="494"/>
      <point x="416" y="408" type="curve" smooth="yes"/>
    </contour>
  </outline>
</glyph>
<glyph name="o" format="1">
  <advance width="292"/>
  <unicode hex="006F"/>
  <outline>
    <contour>
      <point x="256" y="263" type="curve" smooth="yes"/>
      <point x="256" y="107"/>
      <point x="225" y="-7"/>
      <point x="146" y="-7" type="curve" smooth="yes"/>
      <point x="67" y="-7"/>
      <point x="36" y="106"/>
      <point x="36" y="262" type="curve" smooth="yes"/>
      <point x="36" y="418"/>
      <point x="67" y="532"/>
      <point x="146" y="532" type="curve" smooth="yes"/>
      <point x="225" y="532"/>
      <point x="256" y="419"/>
    </contour>
    <contour>
      <point x="252" y="263" type="curve" smooth="yes"/>
      <point x="252" y="417"/>
      <point x="221" y="528"/>
      <point x="146" y="528" type="curve" smooth="yes"/>
      <point x="71" y="528"/>
      <point x="40" y="416"/>
      <point x="40" y="262" type="curve" smooth="yes"/>
      <point x="40" y="108"/>
      <point x="71" y="-3"/>
      <point x="146" y="-3" type="curve" smooth="yes"/>
      <point x="221" y="-3"/>
      <point x="252" y="109"/>
    </contour>
  </outline>
</glyph>
<glyph name="p" format="1">
  <advance width="281"/>
  <unicode hex="0070"/>
  <outline>
    <contour>
      <point x="245" y="263" type="curve" smooth="yes"/>
      <point x="245" y="53"/>
      <point x="202" y="-7"/>
      <point x="144" y="-7" type="curve" smooth="yes"/>
      <point x="107" y="-7"/>
      <point x="79" y="14"/>
      <point x="52" y="51" type="curve"/>
      <point x="52" y="-183" type="line"/>
      <point x="48" y="-185" type="line"/>
      <point x="48" y="525" type="line"/>
      <point x="52" y="525" type="line"/>
      <point x="52" y="474" type="line"/>
      <point x="79" y="511"/>
      <point x="107" y="532"/>
      <point x="144" y="532" type="curve" smooth="yes"/>
      <point x="202" y="532"/>
      <point x="245" y="472"/>
    </contour>
    <contour>
      <point x="241" y="263" type="curve" smooth="yes"/>
      <point x="241" y="468"/>
      <point x="199" y="528"/>
      <point x="144" y="528" type="curve" smooth="yes"/>
      <point x="108" y="528"/>
      <point x="78" y="506"/>
      <point x="52" y="467" type="curve"/>
      <point x="52" y="58" type="line"/>
      <point x="78" y="19"/>
      <point x="108" y="-3"/>
      <point x="144" y="-3" type="curve" smooth="yes"/>
      <point x="199" y="-3"/>
      <point x="241" y="57"/>
    </contour>
  </outline>
</glyph>
<glyph name="q" format="1">
  <advance width="281"/>
  <unicode hex="0071"/>
  <outline>
    <contour>
      <point x="233" y="-183" type="line"/>
      <point x="229" y="-185" type="line"/>
      <point x="229" y="51" type="line"/>
      <point x="202" y="14"/>
      <point x="174" y="-7"/>
      <point x="137" y="-7" type="curve" smooth="yes"/>
      <point x="79" y="-7"/>
      <point x="36" y="53"/>
      <point x="36" y="262" type="curve" smooth="yes"/>
      <point x="36" y="472"/>
      <point x="79" y="532"/>
      <point x="137" y="532" type="curve" smooth="yes"/>
      <point x="174" y="532"/>
      <point x="202" y="511"/>
      <point x="229" y="474" type="curve"/>
      <point x="229" y="525" type="line"/>
      <point x="233" y="525" type="line"/>
    </contour>
    <contour>
      <point x="229" y="58" type="curve"/>
      <point x="229" y="467" type="line"/>
      <point x="203" y="506"/>
      <point x="173" y="528"/>
      <point x="137" y="528" type="curve" smooth="yes"/>
      <point x="82" y="528"/>
      <point x="40" y="468"/>
      <point x="40" y="262" type="curve" smooth="yes"/>
      <point x="40" y="57"/>
      <point x="82" y="-3"/>
      <point x="137" y="-3" type="curve" smooth="yes"/>
      <point x="173" y="-3"/>
      <point x="203" y="19"/>
    </contour>
  </outline>
</glyph>
<glyph name="r" format="1">
  <advance width="184"/>
  <unicode hex="0072"/>
  <outline>
    <contour>
      <point x="178" y="523" type="curve"/>
      <point x="176" y="519" type="line"/>
      <point x="164" y="523"/>
      <point x="152" y="525"/>
      <point x="132" y="525" type="curve" smooth="yes"/>
      <point x="104" y="525"/>
      <point x="76" y="512"/>
      <point x="52" y="482" type="curve"/>
      <point x="52" y="0" type="line"/>
      <point x="48" y="0" type="line"/>
      <point x="48" y="525" type="line"/>
      <point x="52" y="525" type="line"/>
      <point x="52" y="489" type="line"/>
      <point x="77" y="517"/>
      <point x="102" y="529"/>
      <point x="132" y="529" type="curve" smooth="yes"/>
      <point x="152" y="529"/>
      <point x="164" y="527"/>
    </contour>
  </outline>
</glyph>
<glyph name="s" format="1">
  <advance width="249"/>
  <unicode hex="0073"/>
  <outline>
    <contour>
      <point x="219" y="101" type="curve" smooth="yes"/>
      <point x="219" y="35"/>
      <point x="180" y="-7"/>
      <point x="128" y="-7" type="curve" smooth="yes"/>
      <point x="82" y="-7"/>
      <point x="47" y="22"/>
      <point x="27" y="91" type="curve"/>
      <point x="31" y="93" type="line"/>
      <point x="51" y="26"/>
      <point x="84" y="-3"/>
      <point x="128" y="-3" type="curve" smooth="yes"/>
      <point x="177" y="-3"/>
      <point x="215" y="38"/>
      <point x="215" y="101" type="curve" smooth="yes"/>
      <point x="215" y="175"/>
      <point x="186" y="213"/>
      <point x="123" y="274" type="curve" smooth="yes"/>
      <point x="63" y="333"/>
      <point x="36" y="368"/>
      <point x="36" y="431" type="curve" smooth="yes"/>
      <point x="36" y="491"/>
      <point x="72" y="532"/>
      <point x="120" y="532" type="curve" smooth="yes"/>
      <point x="166" y="532"/>
      <point x="196" y="502"/>
      <point x="217" y="445" type="curve"/>
      <point x="213" y="443" type="line"/>
      <point x="192" y="498"/>
      <point x="164" y="528"/>
      <point x="120" y="528" type="curve" smooth="yes"/>
      <point x="74" y="528"/>
      <point x="40" y="488"/>
      <point x="40" y="431" type="curve" smooth="yes"/>
      <point x="40" y="370"/>
      <point x="66" y="336"/>
      <point x="125" y="278" type="curve" smooth="yes"/>
      <point x="189" y="216"/>
      <point x="219" y="177"/>
    </contour>
  </outline>
</glyph>
<glyph name="t" format="1">
  <advance width="155"/>
  <unicode hex="0074"/>
  <outline>
    <contour>
      <point x="144" y="5" type="curve"/>
      <point x="143" y="0" type="line"/>
      <point x="134" y="-3"/>
      <point x="127" y="-4"/>
      <point x="114" y="-4" type="curve" smooth="yes"/>
      <point x="83" y="-4"/>
      <point x="59" y="16"/>
      <point x="59" y="68" type="curve" smooth="yes"/>
      <point x="59" y="521" type="line"/>
      <point x="10" y="521" type="line"/>
      <point x="10" y="525" type="line"/>
      <point x="59" y="525" type="line"/>
      <point x="59" y="700" type="line"/>
      <point x="63" y="700" type="line"/>
      <point x="63" y="525" type="line"/>
      <point x="138" y="525" type="line"/>
      <point x="138" y="521" type="line"/>
      <point x="63" y="521" type="line"/>
      <point x="63" y="69" type="line" smooth="yes"/>
      <point x="63" y="20"/>
      <point x="85" y="0"/>
      <point x="114" y="0" type="curve" smooth="yes"/>
      <point x="127" y="0"/>
      <point x="135" y="1"/>
    </contour>
  </outline>
</glyph>
<glyph name="u" format="1">
  <advance width="287"/>
  <unicode hex="0075"/>
  <outline>
    <contour>
      <point x="239" y="0" type="line"/>
      <point x="235" y="0" type="line"/>
      <point x="235" y="40" type="line"/>
      <point x="206" y="11"/>
      <point x="170" y="-7"/>
      <point x="134" y="-7" type="curve" smooth="yes"/>
      <point x="69" y="-7"/>
      <point x="45" y="33"/>
      <point x="45" y="122" type="curve" smooth="yes"/>
      <point x="45" y="525" type="line"/>
      <point x="49" y="525" type="line"/>
      <point x="49" y="122" type="line" smooth="yes"/>
      <point x="49" y="37"/>
      <point x="71" y="-3"/>
      <point x="134" y="-3" type="curve" smooth="yes"/>
      <point x="171" y="-3"/>
      <point x="205" y="16"/>
      <point x="235" y="44" type="curve"/>
      <point x="235" y="525" type="line"/>
      <point x="239" y="525" type="line"/>
    </contour>
  </outline>
</glyph>
<glyph name="v" format="1">
  <advance width="260"/>
  <unicode hex="0076"/>
  <outline>
    <contour>
      <point x="234" y="525" type="line"/>
      <point x="132" y="-8" type="line"/>
      <point x="128" y="-8" type="line"/>
      <point x="26" y="525" type="line"/>
      <point x="30" y="525" type="line"/>
      <point x="130" y="2" type="line"/>
      <point x="230" y="525" type="line"/>
    </contour>
  </outline>
</glyph>
<glyph name="w" format="1">
  <advance width="390"/>
  <unicode hex="0077"/>
  <outline>
    <contour>
      <point x="358" y="525" type="line"/>
      <point x="285" y="-8" type="line"/>
      <point x="281" y="-8" type="line"/>
      <point x="195" y="516" type="line"/>
      <point x="109" y="-8" type="line"/>
      <point x="105" y="-8" type="line"/>
      <point x="32" y="525" type="line"/>
      <point x="36" y="525" type="line"/>
      <point x="107" y="5" type="line"/>
      <point x="193" y="528" type="line"/>
      <point x="197" y="528" type="line"/>
      <point x="283" y="5" type="line"/>
      <point x="354" y="525" type="line"/>
    </contour>
  </outline>
</glyph>
<glyph name="x" format="1">
  <advance width="242"/>
  <unicode hex="0078"/>
  <outline>
    <contour>
      <point x="218" y="0" type="line"/>
      <point x="214" y="0" type="line"/>
      <point x="121" y="271" type="line"/>
      <point x="28" y="0" type="line"/>
      <point x="24" y="0" type="line"/>
      <point x="119" y="277" type="line"/>
      <point x="34" y="525" type="line"/>
      <point x="38" y="525" type="line"/>
      <point x="121" y="283" type="line"/>
      <point x="204" y="525" type="line"/>
      <point x="208" y="525" type="line"/>
      <point x="123" y="277" type="line"/>
    </contour>
  </outline>
</glyph>
<glyph name="y" format="1">
  <advance width="260"/>
  <unicode hex="0079"/>
  <outline>
    <contour>
      <point x="234" y="525" type="line"/>
      <point x="98" y="-185" type="line"/>
      <point x="94" y="-185" type="line"/>
      <point x="128" y="-7" type="line"/>
      <point x="26" y="525" type="line"/>
      <point x="30" y="525" type="line"/>
      <point x="130" y="3" type="line"/>
      <point x="230" y="525" type="line"/>
    </contour>
  </outline>
</glyph>
<glyph name="z" format="1">
  <advance width="225"/>
  <unicode hex="007A"/>
  <outline>
    <contour>
      <point x="203" y="523" type="line"/>
      <point x="25" y="4" type="line"/>
      <point x="201" y="4" type="line"/>
      <point x="201" y="0" type="line"/>
      <point x="20" y="0" type="line"/>
      <point x="20" y="2" type="line"/>
      <point x="198" y="521" type="line"/>
      <point x="37" y="521" type="line"/>
      <point x="37" y="525" type="line"/>
      <point x="203" y="525" type="line"/>
    </contour>
  </outline>
</glyph>
<glyph name="braceleft" format="1">
  <advance width="212"/>
  <unicode hex="007B"/>
  <outline>
    <contour>
      <point x="203" y="-108" type="line"/>
      <point x="131" y="-100"/>
      <point x="90" y="-58"/>
      <point x="90" y="43" type="curve" smooth="yes"/>
      <point x="90" y="222" type="line" smooth="yes"/>
      <point x="90" y="263"/>
      <point x="69" y="294"/>
      <point x="26" y="294" type="curve" smooth="yes"/>
      <point x="8" y="294" type="line"/>
      <point x="8" y="298" type="line"/>
      <point x="26" y="298" type="line" smooth="yes"/>
      <point x="69" y="298"/>
      <point x="90" y="329"/>
      <point x="90" y="370" type="curve" smooth="yes"/>
      <point x="90" y="549" type="line" smooth="yes"/>
      <point x="90" y="650"/>
      <point x="131" y="692"/>
      <point x="203" y="700" type="curve"/>
      <point x="203" y="696" type="line"/>
      <point x="133" y="688"/>
      <point x="94" y="648"/>
      <point x="94" y="549" type="curve" smooth="yes"/>
      <point x="94" y="370" type="line" smooth="yes"/>
      <point x="94" y="331"/>
      <point x="75" y="302"/>
      <point x="41" y="296" type="curve"/>
      <point x="75" y="290"/>
      <point x="94" y="261"/>
      <point x="94" y="222" type="curve" smooth="yes"/>
      <point x="94" y="43" type="line" smooth="yes"/>
      <point x="94" y="-56"/>
      <point x="133" y="-96"/>
      <point x="203" y="-104" type="curve"/>
    </contour>
  </outline>
</glyph>
<glyph name="bar" format="1">
  <advance width="132"/>
  <unicode hex="007C"/>
  <outline>
    <contour>
      <point x="68" y="-185" type="line"/>
      <point x="64" y="-185" type="line"/>
      <point x="64" y="800" type="line"/>
      <point x="68" y="800" type="line"/>
    </contour>
  </outline>
</glyph>
<glyph name="braceright" format="1">
  <advance width="212"/>
  <unicode hex="007D"/>
  <outline>
    <contour>
      <point x="204" y="294" type="line"/>
      <point x="186" y="294" type="line" smooth="yes"/>
      <point x="143" y="294"/>
      <point x="122" y="263"/>
      <point x="122" y="222" type="curve" smooth="yes"/>
      <point x="122" y="43" type="line" smooth="yes"/>
      <point x="122" y="-58"/>
      <point x="81" y="-100"/>
      <point x="9" y="-108" type="curve"/>
      <point x="9" y="-104" type="line"/>
      <point x="79" y="-96"/>
      <point x="118" y="-56"/>
      <point x="118" y="43" type="curve" smooth="yes"/>
      <point x="118" y="222" type="line" smooth="yes"/>
      <point x="118" y="261"/>
      <point x="137" y="290"/>
      <point x="171" y="296" type="curve"/>
      <point x="137" y="302"/>
      <point x="118" y="331"/>
      <point x="118" y="370" type="curve" smooth="yes"/>
      <point x="118" y="549" type="line" smooth="yes"/>
      <point x="118" y="648"/>
      <point x="79" y="688"/>
      <point x="9" y="696" type="curve"/>
      <point x="9" y="700" type="line"/>
      <point x="81" y="692"/>
      <point x="122" y="650"/>
      <point x="122" y="549" type="curve" smooth="yes"/>
      <point x="122" y="370" type="line" smooth="yes"/>
      <point x="122" y="329"/>
      <point x="143" y="298"/>
      <point x="186" y="298" type="curve" smooth="yes"/>
      <point x="204" y="298" type="line"/>
    </contour>
  </outline>
</glyph>
<glyph name="asciitilde" format="1">
  <advance width="232"/>
  <unicode hex="007E"/>
  <outline>
    <contour>
      <point x="22" y="314" type="line"/>
      <point x="27" y="373"/>
      <point x="47" y="438"/>
      <point x="73" y="438" type="curve" smooth="yes"/>
      <point x="93" y="438"/>
      <point x="103" y="409"/>
      <point x="116" y="375" type="curve" smooth="yes"/>
      <point x="129" y="341"/>
      <point x="139" y="306"/>
      <point x="159" y="306" type="curve" smooth="yes"/>
      <point x="181" y="306"/>
      <point x="201" y="370"/>
      <point x="206" y="426" type="curve"/>
      <point x="210" y="426" type="line"/>
      <point x="205" y="368"/>
      <point x="184" y="302"/>
      <point x="159" y="302" type="curve" smooth="yes"/>
      <point x="137" y="302"/>
      <point x="127" y="335"/>
      <point x="112" y="374" type="curve" smooth="yes"/>
      <point x="101" y="403"/>
      <point x="91" y="434"/>
      <point x="73" y="434" type="curve" smooth="yes"/>
      <point x="49" y="434"/>
      <point x="31" y="370"/>
      <point x="26" y="314" type="curve"/>
    </contour>
  </outline>
</glyph>
<glyph name="exclamdown" format="1">
  <advance width="126"/>
  <unicode hex="00A1"/>
  <outline>
    <contour>
      <point x="65" y="640" type="line"/>
      <point x="61" y="640" type="line"/>
      <point x="61" y="700" type="line"/>
      <point x="65" y="700" type="line"/>
    </contour>
    <contour>
      <point x="65" y="0" type="line"/>
      <point x="61" y="0" type="line"/>
      <point x="61" y="329" type="line"/>
      <point x="61" y="570" type="line"/>
      <point x="65" y="570" type="line"/>
      <point x="65" y="329" type="line"/>
    </contour>
  </outline>
</glyph>
<glyph name="cent" format="1">
  <advance width="257"/>
  <unicode hex="00A2"/>
  <outline>
    <contour>
      <point x="140" y="624" type="curve"/>
      <point x="140" y="727" type="line"/>
      <point x="144" y="727" type="line"/>
      <point x="144" y="624" type="line"/>
      <point x="195" y="622"/>
      <point x="222" y="563"/>
      <point x="233" y="493" type="curve"/>
      <point x="229" y="493" type="line"/>
      <point x="218" y="561"/>
      <point x="192" y="620"/>
      <point x="142" y="620" type="curve" smooth="yes"/>
      <point x="73" y="620"/>
      <point x="40" y="508"/>
      <point x="40" y="354" type="curve" smooth="yes"/>
      <point x="40" y="200"/>
      <point x="73" y="89"/>
      <point x="142" y="89" type="curve" smooth="yes"/>
      <point x="187" y="89"/>
      <point x="216" y="133"/>
      <point x="231" y="212" type="curve"/>
      <point x="235" y="212" type="line"/>
      <point x="220" y="130"/>
      <point x="190" y="86"/>
      <point x="144" y="85" type="curve"/>
      <point x="144" y="-18" type="line"/>
      <point x="140" y="-18" type="line"/>
      <point x="140" y="85" type="line"/>
      <point x="68" y="87"/>
      <point x="36" y="199"/>
      <point x="36" y="354" type="curve" smooth="yes"/>
      <point x="36" y="509"/>
      <point x="68" y="622"/>
    </contour>
  </outline>
</glyph>
<glyph name="sterling" format="1">
  <advance width="262"/>
  <unicode hex="00A3"/>
  <outline>
    <contour>
      <point x="243" y="0" type="line"/>
      <point x="34" y="0" type="line"/>
      <point x="34" y="2" type="line"/>
      <point x="70" y="87"/>
      <point x="91" y="147"/>
      <point x="91" y="256" type="curve" smooth="yes"/>
      <point x="91" y="278"/>
      <point x="89" y="302"/>
      <point x="86" y="324" type="curve"/>
      <point x="36" y="324" type="line"/>
      <point x="36" y="328" type="line"/>
      <point x="86" y="328" type="line"/>
      <point x="82" y="361"/>
      <point x="75" y="392"/>
      <point x="69" y="414" type="curve" smooth="yes"/>
      <point x="49" y="481"/>
      <point x="43" y="523"/>
      <point x="43" y="573" type="curve" smooth="yes"/>
      <point x="43" y="653"/>
      <point x="80" y="707"/>
      <point x="136" y="707" type="curve" smooth="yes"/>
      <point x="193" y="707"/>
      <point x="225" y="651"/>
      <point x="241" y="552" type="curve"/>
      <point x="237" y="552" type="line"/>
      <point x="221" y="647"/>
      <point x="191" y="703"/>
      <point x="136" y="703" type="curve" smooth="yes"/>
      <point x="82" y="703"/>
      <point x="47" y="651"/>
      <point x="47" y="573" type="curve" smooth="yes"/>
      <point x="47" y="523"/>
      <point x="55" y="481"/>
      <point x="73" y="416" type="curve" smooth="yes"/>
      <point x="80" y="392"/>
      <point x="86" y="361"/>
      <point x="90" y="328" type="curve"/>
      <point x="187" y="328" type="line"/>
      <point x="187" y="324" type="line"/>
      <point x="90" y="324" type="line"/>
      <point x="93" y="301"/>
      <point x="95" y="278"/>
      <point x="95" y="256" type="curve" smooth="yes"/>
      <point x="95" y="148"/>
      <point x="74" y="87"/>
      <point x="39" y="4" type="curve"/>
      <point x="243" y="4" type="line"/>
    </contour>
  </outline>
</glyph>
<glyph name="section" format="1">
  <advance width="282"/>
  <unicode hex="00A7"/>
  <outline>
    <contour>
      <point x="250" y="252" type="curve" smooth="yes"/>
      <point x="250" y="174"/>
      <point x="220" y="120"/>
      <point x="161" y="82" type="curve"/>
      <point x="203" y="38"/>
      <point x="218" y="3"/>
      <point x="218" y="-46" type="curve" smooth="yes"/>
      <point x="218" y="-109"/>
      <point x="188" y="-160"/>
      <point x="141" y="-160" type="curve" smooth="yes"/>
      <point x="91" y="-160"/>
      <point x="62" y="-112"/>
      <point x="50" y="-11" type="curve"/>
      <point x="54" y="-11" type="line"/>
      <point x="66" y="-108"/>
      <point x="93" y="-156"/>
      <point x="141" y="-156" type="curve" smooth="yes"/>
      <point x="185" y="-156"/>
      <point x="214" y="-107"/>
      <point x="214" y="-46" type="curve" smooth="yes"/>
      <point x="214" y="11"/>
      <point x="191" y="50"/>
      <point x="128" y="109" type="curve" smooth="yes"/>
      <point x="62" y="170"/>
      <point x="32" y="218"/>
      <point x="32" y="295" type="curve" smooth="yes"/>
      <point x="32" y="373"/>
      <point x="62" y="427"/>
      <point x="121" y="465" type="curve"/>
      <point x="79" y="509"/>
      <point x="64" y="544"/>
      <point x="64" y="593" type="curve" smooth="yes"/>
      <point x="64" y="657"/>
      <point x="95" y="707"/>
      <point x="141" y="707" type="curve" smooth="yes"/>
      <point x="191" y="707"/>
      <point x="220" y="659"/>
      <point x="232" y="558" type="curve"/>
      <point x="228" y="558" type="line"/>
      <point x="216" y="655"/>
      <point x="189" y="703"/>
      <point x="141" y="703" type="curve" smooth="yes"/>
      <point x="97" y="703"/>
      <point x="68" y="654"/>
      <point x="68" y="593" type="curve" smooth="yes"/>
      <point x="68" y="536"/>
      <point x="91" y="497"/>
      <point x="154" y="438" type="curve" smooth="yes"/>
      <point x="220" y="377"/>
      <point x="250" y="329"/>
    </contour>
    <contour>
      <point x="246" y="252" type="curve" smooth="yes"/>
      <point x="246" y="327"/>
      <point x="216" y="374"/>
      <point x="152" y="435" type="curve" smooth="yes"/>
      <point x="142" y="444"/>
      <point x="133" y="453"/>
      <point x="124" y="462" type="curve"/>
      <point x="67" y="426"/>
      <point x="36" y="372"/>
      <point x="36" y="295" type="curve" smooth="yes"/>
      <point x="36" y="220"/>
      <point x="66" y="173"/>
      <point x="130" y="112" type="curve" smooth="yes"/>
      <point x="140" y="103"/>
      <point x="149" y="94"/>
      <point x="158" y="85" type="curve"/>
      <point x="215" y="121"/>
      <point x="246" y="175"/>
    </contour>
  </outline>
</glyph>
<glyph name="dieresis" format="1">
  <advance width="312"/>
  <unicode hex="00A8"/>
  <outline>
    <contour>
      <point x="216" y="621" type="line"/>
      <point x="212" y="621" type="line"/>
      <point x="212" y="691" type="line"/>
      <point x="216" y="691" type="line"/>
    </contour>
    <contour>
      <point x="100" y="621" type="line"/>
      <point x="96" y="621" type="line"/>
      <point x="96" y="691" type="line"/>
      <point x="100" y="691" type="line"/>
    </contour>
  </outline>
</glyph>
<glyph name="copyright" format="1">
  <advance width="437"/>
  <unicode hex="00A9"/>
  <outline>
    <contour>
      <point x="400" y="352" type="curve" smooth="yes"/>
      <point x="400" y="153"/>
      <point x="339" y="-8"/>
      <point x="218" y="-8" type="curve" smooth="yes"/>
      <point x="97" y="-8"/>
      <point x="37" y="153"/>
      <point x="37" y="352" type="curve" smooth="yes"/>
      <point x="37" y="551"/>
      <point x="97" y="712"/>
      <point x="218" y="712" type="curve" smooth="yes"/>
      <point x="339" y="712"/>
      <point x="400" y="551"/>
    </contour>
    <contour>
      <point x="41" y="352" type="curve" smooth="yes"/>
      <point x="41" y="155"/>
      <point x="100" y="-4"/>
      <point x="218" y="-4" type="curve" smooth="yes"/>
      <point x="336" y="-4"/>
      <point x="396" y="155"/>
      <point x="396" y="352" type="curve" smooth="yes"/>
      <point x="396" y="549"/>
      <point x="336" y="708"/>
      <point x="218" y="708" type="curve" smooth="yes"/>
      <point x="100" y="708"/>
      <point x="41" y="549"/>
    </contour>
    <contour>
      <point x="271" y="246" type="line"/>
      <point x="261" y="173"/>
      <point x="242" y="150"/>
      <point x="217" y="150" type="curve" smooth="yes"/>
      <point x="181" y="150"/>
      <point x="154" y="195"/>
      <point x="154" y="351" type="curve" smooth="yes"/>
      <point x="154" y="507"/>
      <point x="181" y="552"/>
      <point x="217" y="552" type="curve" smooth="yes"/>
      <point x="242" y="552"/>
      <point x="261" y="528"/>
      <point x="271" y="456" type="curve"/>
      <point x="267" y="456" type="line"/>
      <point x="257" y="525"/>
      <point x="240" y="548"/>
      <point x="217" y="548" type="curve" smooth="yes"/>
      <point x="182" y="548"/>
      <point x="158" y="501"/>
      <point x="158" y="351" type="curve" smooth="yes"/>
      <point x="158" y="201"/>
      <point x="182" y="154"/>
      <point x="217" y="154" type="curve" smooth="yes"/>
      <point x="240" y="154"/>
      <point x="257" y="177"/>
      <point x="267" y="246" type="curve"/>
    </contour>
  </outline>
</glyph>
<glyph name="ordfeminine" format="1">
  <advance width="244"/>
  <unicode hex="00AA"/>
  <outline>
    <contour>
      <point x="193" y="509" type="curve"/>
      <point x="193" y="624" type="line" smooth="yes"/>
      <point x="193" y="679"/>
      <point x="180" y="707"/>
      <point x="135" y="707" type="curve" smooth="yes"/>
      <point x="107" y="707"/>
      <point x="82" y="695"/>
      <point x="58" y="673" type="curve"/>
      <point x="55" y="676" type="line"/>
      <point x="79" y="698"/>
      <point x="104" y="711"/>
      <point x="135" y="711" type="curve" smooth="yes"/>
      <point x="183" y="711"/>
      <point x="197" y="683"/>
      <point x="197" y="624" type="curve" smooth="yes"/>
      <point x="197" y="276" type="line"/>
      <point x="193" y="276" type="line"/>
      <point x="193" y="318" type="line"/>
      <point x="170" y="286"/>
      <point x="143" y="273"/>
      <point x="118" y="273" type="curve" smooth="yes"/>
      <point x="72" y="273"/>
      <point x="41" y="307"/>
      <point x="41" y="406" type="curve" smooth="yes"/>
      <point x="41" y="506"/>
      <point x="73" y="540"/>
      <point x="118" y="540" type="curve" smooth="yes"/>
      <point x="147" y="540"/>
      <point x="172" y="528"/>
    </contour>
    <contour>
      <point x="193" y="323" type="curve"/>
      <point x="193" y="504" type="line"/>
      <point x="169" y="525"/>
      <point x="147" y="536"/>
      <point x="118" y="536" type="curve" smooth="yes"/>
      <point x="75" y="536"/>
      <point x="45" y="502"/>
      <point x="45" y="406" type="curve" smooth="yes"/>
      <point x="45" y="311"/>
      <point x="74" y="277"/>
      <point x="118" y="277" type="curve" smooth="yes"/>
      <point x="143" y="277"/>
      <point x="170" y="292"/>
    </contour>
  </outline>
</glyph>
<glyph name="guillemotleft" format="1">
  <advance width="292"/>
  <unicode hex="00AB"/>
  <outline>
    <contour>
      <point x="261" y="0" type="line"/>
      <point x="256" y="0" type="line"/>
      <point x="134" y="261" type="line"/>
      <point x="134" y="263" type="line"/>
      <point x="256" y="525" type="line"/>
      <point x="261" y="525" type="line"/>
      <point x="138" y="262" type="line"/>
    </contour>
    <contour>
      <point x="148" y="0" type="line"/>
      <point x="143" y="0" type="line"/>
      <point x="21" y="261" type="line"/>
      <point x="21" y="263" type="line"/>
      <point x="143" y="525" type="line"/>
      <point x="148" y="525" type="line"/>
      <point x="25" y="262" type="line"/>
    </contour>
  </outline>
</glyph>
<glyph name="degree" format="1">
  <advance width="222"/>
  <unicode hex="00B0"/>
  <outline>
    <contour>
      <point x="193" y="620" type="curve" smooth="yes"/>
      <point x="193" y="572"/>
      <point x="159" y="533"/>
      <point x="111" y="533" type="curve" smooth="yes"/>
      <point x="63" y="533"/>
      <point x="29" y="572"/>
      <point x="29" y="620" type="curve" smooth="yes"/>
      <point x="29" y="667"/>
      <point x="63" y="705"/>
      <point x="111" y="705" type="curve" smooth="yes"/>
      <point x="159" y="705"/>
      <point x="193" y="667"/>
    </contour>
    <contour>
      <point x="189" y="620" type="curve" smooth="yes"/>
      <point x="189" y="665"/>
      <point x="157" y="701"/>
      <point x="111" y="701" type="curve" smooth="yes"/>
      <point x="65" y="701"/>
      <point x="33" y="665"/>
      <point x="33" y="620" type="curve" smooth="yes"/>
      <point x="33" y="574"/>
      <point x="65" y="537"/>
      <point x="111" y="537" type="curve" smooth="yes"/>
      <point x="157" y="537"/>
      <point x="189" y="574"/>
    </contour>
  </outline>
</glyph>
<glyph name="acute" format="1">
  <advance width="312"/>
  <unicode hex="00B4"/>
  <outline>
    <contour>
      <point x="230" y="762" type="line"/>
      <point x="234" y="762" type="line"/>
      <point x="153" y="602" type="line"/>
      <point x="149" y="602" type="line"/>
    </contour>
  </outline>
</glyph>
<glyph name="paragraph" format="1">
  <advance width="352"/>
  <unicode hex="00B6"/>
  <outline>
    <contour>
      <point x="299" y="-185" type="line"/>
      <point x="295" y="-185" type="line"/>
      <point x="295" y="696" type="line"/>
      <point x="209" y="696" type="line"/>
      <point x="209" y="-185" type="line"/>
      <point x="205" y="-185" type="line"/>
      <point x="205" y="319" type="line"/>
      <point x="183" y="319" type="line" smooth="yes"/>
      <point x="74" y="319"/>
      <point x="20" y="398"/>
      <point x="20" y="513" type="curve" smooth="yes"/>
      <point x="20" y="635"/>
      <point x="86" y="700"/>
      <point x="184" y="700" type="curve" smooth="yes"/>
      <point x="299" y="700" type="line"/>
    </contour>
    <contour>
      <point x="205" y="323" type="line"/>
      <point x="205" y="696" type="line"/>
      <point x="184" y="696" type="line" smooth="yes"/>
      <point x="88" y="696"/>
      <point x="24" y="633"/>
      <point x="24" y="513" type="curve" smooth="yes"/>
      <point x="24" y="400"/>
      <point x="76" y="323"/>
      <point x="183" y="323" type="curve" smooth="yes"/>
    </contour>
  </outline>
</glyph>
<glyph name="periodcentered" format="1">
  <advance width="62"/>
  <unicode hex="00B7"/>
  <outline>
    <contour>
      <point x="33" y="337" type="line"/>
      <point x="29" y="337" type="line"/>
      <point x="29" y="397" type="line"/>
      <point x="33" y="397" type="line"/>
    </contour>
  </outline>
</glyph>
<glyph name="cedilla" format="1">
  <advance width="312"/>
  <unicode hex="00B8"/>
  <outline>
    <contour>
      <point x="172" y="-3" type="line"/>
      <point x="148" y="-74" type="line"/>
      <point x="160" y="-64"/>
      <point x="174" y="-61"/>
      <point x="187" y="-61" type="curve" smooth="yes"/>
      <point x="209" y="-61"/>
      <point x="229" y="-78"/>
      <point x="229" y="-116" type="curve" smooth="yes"/>
      <point x="229" y="-166"/>
      <point x="205" y="-193"/>
      <point x="171" y="-193" type="curve" smooth="yes"/>
      <point x="152" y="-193"/>
      <point x="133" y="-185"/>
      <point x="117" y="-165" type="curve"/>
      <point x="120" y="-162" type="line"/>
      <point x="134" y="-180"/>
      <point x="153" y="-189"/>
      <point x="171" y="-189" type="curve" smooth="yes"/>
      <point x="202" y="-189"/>
      <point x="225" y="-164"/>
      <point x="225" y="-116" type="curve" smooth="yes"/>
      <point x="225" y="-82"/>
      <point x="207" y="-65"/>
      <point x="187" y="-65" type="curve" smooth="yes"/>
      <point x="174" y="-65"/>
      <point x="160" y="-68"/>
      <point x="147" y="-79" type="curve"/>
      <point x="143" y="-77" type="line"/>
      <point x="168" y="-3" type="line"/>
    </contour>
  </outline>
</glyph>
<glyph name="ordmasculine" format="1">
  <advance width="270"/>
  <unicode hex="00BA"/>
  <outline>
    <contour>
      <point x="45" y="490" type="curve" smooth="yes"/>
      <point x="45" y="619"/>
      <point x="69" y="711"/>
      <point x="135" y="711" type="curve" smooth="yes"/>
      <point x="201" y="711"/>
      <point x="225" y="620"/>
      <point x="225" y="491" type="curve" smooth="yes"/>
      <point x="225" y="362"/>
      <point x="201" y="269"/>
      <point x="135" y="269" type="curve" smooth="yes"/>
      <point x="69" y="269"/>
      <point x="45" y="361"/>
    </contour>
    <contour>
      <point x="221" y="491" type="curve" smooth="yes"/>
      <point x="221" y="617"/>
      <point x="198" y="707"/>
      <point x="135" y="707" type="curve" smooth="yes"/>
      <point x="72" y="707"/>
      <point x="49" y="616"/>
      <point x="49" y="490" type="curve" smooth="yes"/>
      <point x="49" y="364"/>
      <point x="72" y="273"/>
      <point x="135" y="273" type="curve" smooth="yes"/>
      <point x="198" y="273"/>
      <point x="221" y="365"/>
    </contour>
  </outline>
</glyph>
<glyph name="guillemotright" format="1">
  <advance width="292"/>
  <unicode hex="00BB"/>
  <outline>
    <contour>
      <point x="271" y="261" type="line"/>
      <point x="149" y="0" type="line"/>
      <point x="144" y="0" type="line"/>
      <point x="267" y="262" type="line"/>
      <point x="144" y="525" type="line"/>
      <point x="149" y="525" type="line"/>
      <point x="271" y="263" type="line"/>
    </contour>
    <contour>
      <point x="158" y="261" type="line"/>
      <point x="36" y="0" type="line"/>
      <point x="31" y="0" type="line"/>
      <point x="154" y="262" type="line"/>
      <point x="31" y="525" type="line"/>
      <point x="36" y="525" type="line"/>
      <point x="158" y="263" type="line"/>
    </contour>
  </outline>
</glyph>
<glyph name="questiondown" format="1">
  <advance width="240"/>
  <unicode hex="00BF"/>
  <outline>
    <contour>
      <point x="128" y="640" type="line"/>
      <point x="124" y="640" type="line"/>
      <point x="124" y="700" type="line"/>
      <point x="128" y="700" type="line"/>
    </contour>
    <contour>
      <point x="217" y="155" type="line"/>
      <point x="205" y="44"/>
      <point x="164" y="-7"/>
      <point x="115" y="-7" type="curve" smooth="yes"/>
      <point x="67" y="-7"/>
      <point x="31" y="44"/>
      <point x="31" y="126" type="curve" smooth="yes"/>
      <point x="31" y="193"/>
      <point x="54" y="264"/>
      <point x="84" y="323" type="curve" smooth="yes"/>
      <point x="114" y="384"/>
      <point x="124" y="442"/>
      <point x="124" y="570" type="curve"/>
      <point x="128" y="570" type="line"/>
      <point x="128" y="442"/>
      <point x="118" y="382"/>
      <point x="88" y="321" type="curve" smooth="yes"/>
      <point x="58" y="262"/>
      <point x="35" y="193"/>
      <point x="35" y="126" type="curve" smooth="yes"/>
      <point x="35" y="46"/>
      <point x="69" y="-3"/>
      <point x="115" y="-3" type="curve" smooth="yes"/>
      <point x="162" y="-3"/>
      <point x="201" y="48"/>
      <point x="213" y="155" type="curve"/>
    </contour>
  </outline>
</glyph>
<glyph name="Aring" format="1">
  <advance width="326"/>
  <unicode hex="00C5"/>
  <outline>
    <contour>
      <point x="160" y="699" type="line"/>
      <point x="122" y="700"/>
      <point x="91" y="732"/>
      <point x="91" y="771" type="curve" smooth="yes"/>
      <point x="91" y="811"/>
      <point x="123" y="843"/>
      <point x="163" y="843" type="curve" smooth="yes"/>
      <point x="203" y="843"/>
      <point x="235" y="811"/>
      <point x="235" y="771" type="curve" smooth="yes"/>
      <point x="235" y="732"/>
      <point x="204" y="700"/>
      <point x="166" y="699" type="curve"/>
      <point x="287" y="0" type="line"/>
      <point x="283" y="0" type="line"/>
      <point x="246" y="214" type="line"/>
      <point x="80" y="214" type="line"/>
      <point x="43" y="0" type="line"/>
      <point x="39" y="0" type="line"/>
    </contour>
    <contour>
      <point x="95" y="771" type="curve" smooth="yes"/>
      <point x="95" y="733"/>
      <point x="125" y="703"/>
      <point x="163" y="703" type="curve" smooth="yes"/>
      <point x="201" y="703"/>
      <point x="231" y="733"/>
      <point x="231" y="771" type="curve" smooth="yes"/>
      <point x="231" y="809"/>
      <point x="201" y="839"/>
      <point x="163" y="839" type="curve" smooth="yes"/>
      <point x="125" y="839"/>
      <point x="95" y="809"/>
    </contour>
    <contour>
      <point x="245" y="218" type="line"/>
      <point x="163" y="694" type="line"/>
      <point x="81" y="218" type="line"/>
    </contour>
  </outline>
</glyph>
<glyph name="AE" format="1">
  <advance width="434"/>
  <unicode hex="00C6"/>
  <outline>
    <contour>
      <point x="241" y="214" type="line"/>
      <point x="87" y="214" type="line"/>
      <point x="18" y="0" type="line"/>
      <point x="14" y="0" type="line"/>
      <point x="238" y="700" type="line"/>
      <point x="404" y="700" type="line"/>
      <point x="404" y="696" type="line"/>
      <point x="245" y="696" type="line"/>
      <point x="245" y="376" type="line"/>
      <point x="356" y="376" type="line"/>
      <point x="356" y="372" type="line"/>
      <point x="245" y="372" type="line"/>
      <point x="245" y="4" type="line"/>
      <point x="414" y="4" type="line"/>
      <point x="414" y="0" type="line"/>
      <point x="241" y="0" type="line"/>
    </contour>
    <contour>
      <point x="88" y="218" type="line"/>
      <point x="241" y="218" type="line"/>
      <point x="241" y="697" type="line"/>
    </contour>
  </outline>
</glyph>
<glyph name="Ccedilla" format="1">
  <advance width="287"/>
  <unicode hex="00C7"/>
  <outline>
    <contour>
      <point x="154" y="-7" type="line"/>
      <point x="90" y="-7"/>
      <point x="43" y="77"/>
      <point x="43" y="350" type="curve" smooth="yes"/>
      <point x="43" y="623"/>
      <point x="90" y="707"/>
      <point x="154" y="707" type="curve" smooth="yes"/>
      <point x="199" y="707"/>
      <point x="231" y="667"/>
      <point x="250" y="537" type="curve"/>
      <point x="246" y="537" type="line"/>
      <point x="227" y="663"/>
      <point x="197" y="703"/>
      <point x="154" y="703" type="curve" smooth="yes"/>
      <point x="92" y="703"/>
      <point x="47" y="619"/>
      <point x="47" y="350" type="curve" smooth="yes"/>
      <point x="47" y="81"/>
      <point x="92" y="-3"/>
      <point x="154" y="-3" type="curve" smooth="yes"/>
      <point x="197" y="-3"/>
      <point x="227" y="37"/>
      <point x="246" y="163" type="curve"/>
      <point x="250" y="163" type="line"/>
      <point x="232" y="37"/>
      <point x="201" y="-5"/>
      <point x="158" y="-7" type="curve"/>
      <point x="135" y="-74" type="line"/>
      <point x="147" y="-64"/>
      <point x="161" y="-61"/>
      <point x="174" y="-61" type="curve" smooth="yes"/>
      <point x="196" y="-61"/>
      <point x="216" y="-78"/>
      <point x="216" y="-116" type="curve" smooth="yes"/>
      <point x="216" y="-166"/>
      <point x="192" y="-193"/>
      <point x="158" y="-193" type="curve" smooth="yes"/>
      <point x="139" y="-193"/>
      <point x="120" y="-185"/>
      <point x="104" y="-165" type="curve"/>
      <point x="107" y="-162" type="line"/>
      <point x="121" y="-180"/>
      <point x="140" y="-189"/>
      <point x="158" y="-189" type="curve" smooth="yes"/>
      <point x="189" y="-189"/>
      <point x="212" y="-164"/>
      <point x="212" y="-116" type="curve" smooth="yes"/>
      <point x="212" y="-82"/>
      <point x="194" y="-65"/>
      <point x="174" y="-65" type="curve" smooth="yes"/>
      <point x="161" y="-65"/>
      <point x="147" y="-68"/>
      <point x="134" y="-79" type="curve"/>
      <point x="130" y="-77" type="line"/>
    </contour>
  </outline>
</glyph>
<glyph name="Eth" format="1">
  <advance width="318"/>
  <unicode hex="00D0"/>
  <outline>
    <contour>
      <point x="63" y="364" type="line"/>
      <point x="16" y="364" type="line"/>
      <point x="16" y="368" type="line"/>
      <point x="63" y="368" type="line"/>
      <point x="63" y="700" type="line"/>
      <point x="123" y="700" type="line" smooth="yes"/>
      <point x="234" y="700"/>
      <point x="279" y="615"/>
      <point x="279" y="350" type="curve" smooth="yes"/>
      <point x="279" y="85"/>
      <point x="234" y="0"/>
      <point x="123" y="0" type="curve" smooth="yes"/>
      <point x="63" y="0" type="line"/>
    </contour>
    <contour>
      <point x="67" y="368" type="line"/>
      <point x="161" y="368" type="line"/>
      <point x="161" y="364" type="line"/>
      <point x="67" y="364" type="line"/>
      <point x="67" y="4" type="line"/>
      <point x="123" y="4" type="line" smooth="yes"/>
      <point x="232" y="4"/>
      <point x="275" y="89"/>
      <point x="275" y="350" type="curve" smooth="yes"/>
      <point x="275" y="611"/>
      <point x="232" y="696"/>
      <point x="123" y="696" type="curve" smooth="yes"/>
      <point x="67" y="696" type="line"/>
    </contour>
  </outline>
</glyph>
<glyph name="Oslash" format="1">
  <advance width="314"/>
  <unicode hex="00D8"/>
  <outline>
    <contour>
      <point x="74" y="72" type="line"/>
      <point x="54" y="124"/>
      <point x="43" y="216"/>
      <point x="43" y="350" type="curve" smooth="yes"/>
      <point x="43" y="623"/>
      <point x="89" y="707"/>
      <point x="157" y="707" type="curve" smooth="yes"/>
      <point x="193" y="707"/>
      <point x="219" y="684"/>
      <point x="239" y="633" type="curve"/>
      <point x="273" y="750" type="line"/>
      <point x="277" y="750" type="line"/>
      <point x="241" y="627" type="line"/>
      <point x="260" y="572"/>
      <point x="271" y="483"/>
      <point x="271" y="350" type="curve" smooth="yes"/>
      <point x="271" y="77"/>
      <point x="225" y="-7"/>
      <point x="157" y="-7" type="curve" smooth="yes"/>
      <point x="124" y="-7"/>
      <point x="96" y="13"/>
      <point x="76" y="66" type="curve"/>
      <point x="69" y="42"/>
      <point x="42" y="-50"/>
      <point x="42" y="-50" type="curve"/>
      <point x="38" y="-50" type="line"/>
    </contour>
    <contour>
      <point x="76" y="78" type="curve"/>
      <point x="237" y="627" type="line"/>
      <point x="218" y="682"/>
      <point x="190" y="703"/>
      <point x="157" y="703" type="curve" smooth="yes"/>
      <point x="91" y="703"/>
      <point x="47" y="619"/>
      <point x="47" y="350" type="curve" smooth="yes"/>
      <point x="47" y="220"/>
      <point x="58" y="127"/>
    </contour>
    <contour>
      <point x="239" y="621" type="curve"/>
      <point x="78" y="72" type="line"/>
      <point x="96" y="19"/>
      <point x="124" y="-3"/>
      <point x="157" y="-3" type="curve" smooth="yes"/>
      <point x="223" y="-3"/>
      <point x="267" y="81"/>
      <point x="267" y="350" type="curve" smooth="yes"/>
      <point x="267" y="479"/>
      <point x="257" y="566"/>
    </contour>
  </outline>
</glyph>
<glyph name="Thorn" format="1">
  <advance width="276"/>
  <unicode hex="00DE"/>
  <outline>
    <contour>
      <point x="249" y="357" type="curve" smooth="yes"/>
      <point x="249" y="219"/>
      <point x="189" y="181"/>
      <point x="93" y="181" type="curve" smooth="yes"/>
      <point x="57" y="181" type="line"/>
      <point x="57" y="0" type="line"/>
      <point x="53" y="0" type="line"/>
      <point x="53" y="700" type="line"/>
      <point x="57" y="700" type="line"/>
      <point x="57" y="533" type="line"/>
      <point x="93" y="533" type="line" smooth="yes"/>
      <point x="189" y="533"/>
      <point x="249" y="495"/>
    </contour>
    <contour>
      <point x="245" y="357" type="curve" smooth="yes"/>
      <point x="245" y="491"/>
      <point x="187" y="529"/>
      <point x="93" y="529" type="curve" smooth="yes"/>
      <point x="57" y="529" type="line"/>
      <point x="57" y="185" type="line"/>
      <point x="93" y="185" type="line" smooth="yes"/>
      <point x="187" y="185"/>
      <point x="245" y="223"/>
    </contour>
  </outline>
</glyph>
<glyph name="germandbls" format="1">
  <advance width="302"/>
  <unicode hex="00DF"/>
  <outline>
    <contour>
      <point x="263" y="209" type="curve" smooth="yes"/>
      <point x="263" y="62"/>
      <point x="225" y="0"/>
      <point x="138" y="0" type="curve" smooth="yes"/>
      <point x="130" y="0" type="line"/>
      <point x="130" y="4" type="line"/>
      <point x="138" y="4" type="line" smooth="yes"/>
      <point x="223" y="4"/>
      <point x="259" y="66"/>
      <point x="259" y="209" type="curve" smooth="yes"/>
      <point x="259" y="340"/>
      <point x="206" y="401"/>
      <point x="137" y="401" type="curve" smooth="yes"/>
      <point x="130" y="401" type="line"/>
      <point x="130" y="405" type="line"/>
      <point x="185" y="405"/>
      <point x="230" y="450"/>
      <point x="230" y="569" type="curve" smooth="yes"/>
      <point x="230" y="669"/>
      <point x="195" y="722"/>
      <point x="140" y="722" type="curve" smooth="yes"/>
      <point x="85" y="722"/>
      <point x="52" y="672"/>
      <point x="52" y="561" type="curve" smooth="yes"/>
      <point x="52" y="-183" type="line"/>
      <point x="48" y="-185" type="line"/>
      <point x="48" y="561" type="line" smooth="yes"/>
      <point x="48" y="676"/>
      <point x="83" y="726"/>
      <point x="140" y="726" type="curve" smooth="yes"/>
      <point x="197" y="726"/>
      <point x="234" y="673"/>
      <point x="234" y="569" type="curve" smooth="yes"/>
      <point x="234" y="464"/>
      <point x="199" y="415"/>
      <point x="154" y="404" type="curve"/>
      <point x="216" y="395"/>
      <point x="263" y="333"/>
    </contour>
  </outline>
</glyph>
<glyph name="ae" format="1">
  <advance width="459"/>
  <unicode hex="00E6"/>
  <outline>
    <contour>
      <point x="219" y="284" type="curve"/>
      <point x="219" y="424" type="line" smooth="yes"/>
      <point x="219" y="494"/>
      <point x="202" y="528"/>
      <point x="145" y="528" type="curve" smooth="yes"/>
      <point x="110" y="528"/>
      <point x="79" y="514"/>
      <point x="51" y="485" type="curve"/>
      <point x="48" y="487" type="line"/>
      <point x="76" y="517"/>
      <point x="108" y="532"/>
      <point x="145" y="532" type="curve" smooth="yes"/>
      <point x="204" y="532"/>
      <point x="223" y="498"/>
      <point x="223" y="424" type="curve" smooth="yes"/>
      <point x="223" y="424"/>
      <point x="223" y="348"/>
      <point x="223" y="347" type="curve"/>
      <point x="232" y="456"/>
      <point x="262" y="532"/>
      <point x="325" y="532" type="curve" smooth="yes"/>
      <point x="397" y="532"/>
      <point x="424" y="412"/>
      <point x="424" y="274" type="curve" smooth="yes"/>
      <point x="424" y="272"/>
      <point x="424" y="265"/>
      <point x="424" y="263" type="curve"/>
      <point x="223" y="263" type="line"/>
      <point x="223" y="262" type="line" smooth="yes"/>
      <point x="223" y="108"/>
      <point x="252" y="-3"/>
      <point x="325" y="-3" type="curve" smooth="yes"/>
      <point x="368" y="-3"/>
      <point x="398" y="31"/>
      <point x="413" y="105" type="curve"/>
      <point x="417" y="105" type="line"/>
      <point x="402" y="27"/>
      <point x="370" y="-7"/>
      <point x="325" y="-7" type="curve" smooth="yes"/>
      <point x="284" y="-7"/>
      <point x="257" y="25"/>
      <point x="240" y="78" type="curve"/>
      <point x="209" y="33"/>
      <point x="175" y="-6"/>
      <point x="124" y="-6" type="curve" smooth="yes"/>
      <point x="67" y="-6"/>
      <point x="28" y="36"/>
      <point x="28" y="159" type="curve" smooth="yes"/>
      <point x="28" y="282"/>
      <point x="69" y="324"/>
      <point x="125" y="324" type="curve" smooth="yes"/>
      <point x="162" y="324"/>
      <point x="192" y="308"/>
    </contour>
    <contour>
      <point x="420" y="267" type="line"/>
      <point x="420" y="269"/>
      <point x="420" y="273"/>
      <point x="420" y="274" type="curve" smooth="yes"/>
      <point x="420" y="410"/>
      <point x="393" y="528"/>
      <point x="325" y="528" type="curve" smooth="yes"/>
      <point x="253" y="528"/>
      <point x="224" y="418"/>
      <point x="223" y="267" type="curve"/>
    </contour>
    <contour>
      <point x="219" y="279" type="curve"/>
      <point x="189" y="304"/>
      <point x="161" y="320"/>
      <point x="125" y="320" type="curve" smooth="yes"/>
      <point x="71" y="320"/>
      <point x="32" y="278"/>
      <point x="32" y="159" type="curve" smooth="yes"/>
      <point x="32" y="40"/>
      <point x="69" y="-2"/>
      <point x="124" y="-2" type="curve" smooth="yes"/>
      <point x="173" y="-2"/>
      <point x="208" y="38"/>
      <point x="239" y="83" type="curve"/>
      <point x="225" y="129"/>
      <point x="219" y="191"/>
      <point x="219" y="262" type="curve" smooth="yes"/>
      <point x="219" y="268"/>
      <point x="219" y="273"/>
    </contour>
  </outline>
</glyph>
<glyph name="ccedilla" format="1">
  <advance width="257"/>
  <unicode hex="00E7"/>
  <outline>
    <contour>
      <point x="142" y="-3" type="curve" smooth="yes"/>
      <point x="187" y="-3"/>
      <point x="216" y="41"/>
      <point x="231" y="120" type="curve"/>
      <point x="235" y="120" type="line"/>
      <point x="220" y="37"/>
      <point x="189" y="-7"/>
      <point x="143" y="-7" type="curve"/>
      <point x="120" y="-74" type="line"/>
      <point x="132" y="-64"/>
      <point x="146" y="-61"/>
      <point x="159" y="-61" type="curve" smooth="yes"/>
      <point x="181" y="-61"/>
      <point x="201" y="-78"/>
      <point x="201" y="-116" type="curve" smooth="yes"/>
      <point x="201" y="-166"/>
      <point x="177" y="-193"/>
      <point x="143" y="-193" type="curve" smooth="yes"/>
      <point x="124" y="-193"/>
      <point x="105" y="-185"/>
      <point x="89" y="-165" type="curve"/>
      <point x="92" y="-162" type="line"/>
      <point x="106" y="-180"/>
      <point x="125" y="-189"/>
      <point x="143" y="-189" type="curve" smooth="yes"/>
      <point x="174" y="-189"/>
      <point x="197" y="-164"/>
      <point x="197" y="-116" type="curve" smooth="yes"/>
      <point x="197" y="-82"/>
      <point x="179" y="-65"/>
      <point x="159" y="-65" type="curve" smooth="yes"/>
      <point x="146" y="-65"/>
      <point x="132" y="-68"/>
      <point x="119" y="-79" type="curve"/>
      <point x="115" y="-77" type="line"/>
      <point x="139" y="-7" type="line"/>
      <point x="68" y="-4"/>
      <point x="36" y="108"/>
      <point x="36" y="262" type="curve" smooth="yes"/>
      <point x="36" y="418"/>
      <point x="69" y="532"/>
      <point x="142" y="532" type="curve" smooth="yes"/>
      <point x="194" y="532"/>
      <point x="222" y="471"/>
      <point x="233" y="401" type="curve"/>
      <point x="229" y="401" type="line"/>
      <point x="218" y="469"/>
      <point x="192" y="528"/>
      <point x="142" y="528" type="curve" smooth="yes"/>
      <point x="73" y="528"/>
      <point x="40" y="416"/>
      <point x="40" y="262" type="curve" smooth="yes"/>
      <point x="40" y="108"/>
      <point x="73" y="-3"/>
    </contour>
  </outline>
</glyph>
<glyph name="eth" format="1">
  <advance width="314"/>
  <unicode hex="00F0"/>
  <outline>
    <contour>
      <point x="193" y="620" type="curve"/>
      <point x="130" y="549" type="line"/>
      <point x="127" y="552" type="line"/>
      <point x="191" y="624" type="line"/>
      <point x="162" y="663"/>
      <point x="128" y="690"/>
      <point x="98" y="707" type="curve"/>
      <point x="100" y="711" type="line"/>
      <point x="130" y="694"/>
      <point x="163" y="668"/>
      <point x="194" y="627" type="curve"/>
      <point x="255" y="696" type="line"/>
      <point x="258" y="693" type="line"/>
      <point x="196" y="623" type="line"/>
      <point x="248" y="551"/>
      <point x="290" y="433"/>
      <point x="290" y="238" type="curve" smooth="yes"/>
      <point x="290" y="111"/>
      <point x="249" y="-7"/>
      <point x="163" y="-7" type="curve" smooth="yes"/>
      <point x="77" y="-7"/>
      <point x="36" y="111"/>
      <point x="36" y="238" type="curve" smooth="yes"/>
      <point x="36" y="381"/>
      <point x="84" y="484"/>
      <point x="159" y="484" type="curve" smooth="yes"/>
      <point x="221" y="484"/>
      <point x="258" y="426"/>
      <point x="279" y="367" type="curve"/>
      <point x="265" y="486"/>
      <point x="232" y="566"/>
    </contour>
    <contour>
      <point x="281" y="353" type="curve"/>
      <point x="259" y="416"/>
      <point x="223" y="480"/>
      <point x="159" y="480" type="curve" smooth="yes"/>
      <point x="87" y="480"/>
      <point x="40" y="379"/>
      <point x="40" y="238" type="curve" smooth="yes"/>
      <point x="40" y="113"/>
      <point x="81" y="-3"/>
      <point x="163" y="-3" type="curve" smooth="yes"/>
      <point x="245" y="-3"/>
      <point x="286" y="113"/>
      <point x="286" y="238" type="curve" smooth="yes"/>
      <point x="286" y="280"/>
      <point x="284" y="318"/>
    </contour>
  </outline>
</glyph>
<glyph name="oslash" format="1">
  <advance width="292"/>
  <unicode hex="00F8"/>
  <outline>
    <contour>
      <point x="70" y="48" type="line"/>
      <point x="46" y="96"/>
      <point x="36" y="172"/>
      <point x="36" y="262" type="curve" smooth="yes"/>
      <point x="36" y="418"/>
      <point x="67" y="532"/>
      <point x="146" y="532" type="curve" smooth="yes"/>
      <point x="178" y="532"/>
      <point x="202" y="513"/>
      <point x="220" y="480" type="curve"/>
      <point x="252" y="575" type="line"/>
      <point x="256" y="575" type="line"/>
      <point x="222" y="476" type="line"/>
      <point x="246" y="429"/>
      <point x="256" y="353"/>
      <point x="256" y="263" type="curve" smooth="yes"/>
      <point x="256" y="107"/>
      <point x="225" y="-7"/>
      <point x="146" y="-7" type="curve" smooth="yes"/>
      <point x="114" y="-7"/>
      <point x="90" y="12"/>
      <point x="72" y="44" type="curve"/>
      <point x="66" y="25"/>
      <point x="40" y="-50"/>
      <point x="40" y="-50" type="curve"/>
      <point x="36" y="-50" type="line"/>
    </contour>
    <contour>
      <point x="72" y="54" type="curve"/>
      <point x="218" y="475" type="line"/>
      <point x="201" y="509"/>
      <point x="178" y="528"/>
      <point x="146" y="528" type="curve" smooth="yes"/>
      <point x="71" y="528"/>
      <point x="40" y="416"/>
      <point x="40" y="262" type="curve" smooth="yes"/>
      <point x="40" y="175"/>
      <point x="50" y="102"/>
    </contour>
    <contour>
      <point x="220" y="471" type="curve"/>
      <point x="74" y="49" type="line"/>
      <point x="91" y="16"/>
      <point x="114" y="-3"/>
      <point x="146" y="-3" type="curve" smooth="yes"/>
      <point x="221" y="-3"/>
      <point x="252" y="109"/>
      <point x="252" y="263" type="curve" smooth="yes"/>
      <point x="252" y="350"/>
      <point x="242" y="423"/>
    </contour>
  </outline>
</glyph>
<glyph name="Lslash" format="1">
  <advance width="223"/>
  <unicode hex="0141"/>
  <outline>
    <contour>
      <point x="39" y="267" type="line"/>
      <point x="39" y="271" type="line"/>
      <point x="63" y="295" type="line"/>
      <point x="63" y="700" type="line"/>
      <point x="67" y="700" type="line"/>
      <point x="67" y="299" type="line"/>
      <point x="142" y="373" type="line"/>
      <point x="142" y="369" type="line"/>
      <point x="67" y="295" type="line"/>
      <point x="67" y="4" type="line"/>
      <point x="215" y="4" type="line"/>
      <point x="215" y="0" type="line"/>
      <point x="63" y="0" type="line"/>
      <point x="63" y="291" type="line"/>
    </contour>
  </outline>
</glyph>
<glyph name="lslash" format="1">
  <advance width="154"/>
  <unicode hex="0142"/>
  <outline>
    <contour>
      <point x="74" y="305" type="line"/>
      <point x="74" y="727" type="line"/>
      <point x="78" y="729" type="line"/>
      <point x="78" y="309" type="line"/>
      <point x="115" y="346" type="line"/>
      <point x="115" y="342" type="line"/>
      <point x="78" y="305" type="line"/>
      <point x="78" y="0" type="line"/>
      <point x="74" y="0" type="line"/>
      <point x="74" y="301" type="line"/>
      <point x="39" y="267" type="line"/>
      <point x="39" y="271" type="line"/>
    </contour>
  </outline>
</glyph>
<glyph name="OE" format="1">
  <advance width="460"/>
  <unicode hex="0152"/>
  <outline>
    <contour>
      <point x="271" y="4" type="line"/>
      <point x="440" y="4" type="line"/>
      <point x="440" y="0" type="line"/>
      <point x="267" y="0" type="line"/>
      <point x="267" y="230" type="line"/>
      <point x="255" y="48"/>
      <point x="212" y="-7"/>
      <point x="157" y="-7" type="curve" smooth="yes"/>
      <point x="89" y="-7"/>
      <point x="43" y="77"/>
      <point x="43" y="350" type="curve" smooth="yes"/>
      <point x="43" y="623"/>
      <point x="89" y="707"/>
      <point x="157" y="707" type="curve" smooth="yes"/>
      <point x="214" y="707"/>
      <point x="255" y="648"/>
      <point x="267" y="469" type="curve"/>
      <point x="267" y="700" type="line"/>
      <point x="430" y="700" type="line"/>
      <point x="430" y="696" type="line"/>
      <point x="271" y="696" type="line"/>
      <point x="271" y="376" type="line"/>
      <point x="382" y="376" type="line"/>
      <point x="382" y="372" type="line"/>
      <point x="271" y="372" type="line"/>
    </contour>
    <contour>
      <point x="267" y="350" type="curve" smooth="yes"/>
      <point x="267" y="619"/>
      <point x="223" y="703"/>
      <point x="157" y="703" type="curve" smooth="yes"/>
      <point x="91" y="703"/>
      <point x="47" y="619"/>
      <point x="47" y="350" type="curve" smooth="yes"/>
      <point x="47" y="81"/>
      <point x="91" y="-3"/>
      <point x="157" y="-3" type="curve" smooth="yes"/>
      <point x="223" y="-3"/>
      <point x="267" y="81"/>
    </contour>
  </outline>
</glyph>
<glyph name="oe" format="1">
  <advance width="492"/>
  <unicode hex="0153"/>
  <outline>
    <contour>
      <point x="256" y="262" type="curve" smooth="yes"/>
      <point x="256" y="108"/>
      <point x="285" y="-3"/>
      <point x="358" y="-3" type="curve" smooth="yes"/>
      <point x="401" y="-3"/>
      <point x="431" y="31"/>
      <point x="446" y="105" type="curve"/>
      <point x="450" y="105" type="line"/>
      <point x="435" y="27"/>
      <point x="403" y="-7"/>
      <point x="358" y="-7" type="curve" smooth="yes"/>
      <point x="292" y="-7"/>
      <point x="260" y="77"/>
      <point x="254" y="203" type="curve"/>
      <point x="247" y="76"/>
      <point x="213" y="-7"/>
      <point x="146" y="-7" type="curve" smooth="yes"/>
      <point x="67" y="-7"/>
      <point x="36" y="106"/>
      <point x="36" y="262" type="curve" smooth="yes"/>
      <point x="36" y="418"/>
      <point x="67" y="532"/>
      <point x="146" y="532" type="curve" smooth="yes"/>
      <point x="213" y="532"/>
      <point x="247" y="450"/>
      <point x="254" y="323" type="curve"/>
      <point x="260" y="446"/>
      <point x="292" y="532"/>
      <point x="358" y="532" type="curve" smooth="yes"/>
      <point x="430" y="532"/>
      <point x="457" y="412"/>
      <point x="457" y="274" type="curve" smooth="yes"/>
      <point x="457" y="272"/>
      <point x="457" y="265"/>
      <point x="457" y="263" type="curve"/>
      <point x="256" y="263" type="line"/>
      <point x="256" y="240"/>
      <point x="256" y="262"/>
    </contour>
    <contour>
      <point x="453" y="267" type="line"/>
      <point x="453" y="269"/>
      <point x="453" y="273"/>
      <point x="453" y="274" type="curve" smooth="yes"/>
      <point x="453" y="410"/>
      <point x="426" y="528"/>
      <point x="358" y="528" type="curve" smooth="yes"/>
      <point x="286" y="528"/>
      <point x="257" y="418"/>
      <point x="256" y="267" type="curve"/>
    </contour>
    <contour>
      <point x="252" y="263" type="curve" smooth="yes"/>
      <point x="252" y="417"/>
      <point x="221" y="528"/>
      <point x="146" y="528" type="curve" smooth="yes"/>
      <point x="71" y="528"/>
      <point x="40" y="416"/>
      <point x="40" y="262" type="curve" smooth="yes"/>
      <point x="40" y="108"/>
      <point x="71" y="-3"/>
      <point x="146" y="-3" type="curve" smooth="yes"/>
      <point x="221" y="-3"/>
      <point x="252" y="109"/>
    </contour>
  </outline>
</glyph>
<glyph name="florin" format="1">
  <advance width="167"/>
  <unicode hex="0192"/>
  <outline>
    <contour>
      <point x="168" y="700" type="curve"/>
      <point x="166" y="696" type="line"/>
      <point x="154" y="700"/>
      <point x="147" y="701"/>
      <point x="132" y="701" type="curve" smooth="yes"/>
      <point x="96" y="701"/>
      <point x="69" y="677"/>
      <point x="69" y="617" type="curve" smooth="yes"/>
      <point x="69" y="504" type="line"/>
      <point x="154" y="504" type="line"/>
      <point x="154" y="500" type="line"/>
      <point x="69" y="500" type="line"/>
      <point x="69" y="-183" type="line"/>
      <point x="65" y="-185" type="line"/>
      <point x="65" y="500" type="line"/>
      <point x="16" y="500" type="line"/>
      <point x="16" y="504" type="line"/>
      <point x="65" y="504" type="line"/>
      <point x="65" y="617" type="line" smooth="yes"/>
      <point x="65" y="681"/>
      <point x="94" y="705"/>
      <point x="132" y="705" type="curve" smooth="yes"/>
      <point x="147" y="705"/>
      <point x="154" y="704"/>
    </contour>
  </outline>
</glyph>
<glyph name="circumflex" format="1">
  <advance width="312"/>
  <unicode hex="02C6"/>
  <outline>
    <contour>
      <point x="246" y="602" type="line"/>
      <point x="242" y="602" type="line"/>
      <point x="156" y="758" type="line"/>
      <point x="70" y="602" type="line"/>
      <point x="66" y="602" type="line"/>
      <point x="154" y="762" type="line"/>
      <point x="158" y="762" type="line"/>
    </contour>
  </outline>
</glyph>
<glyph name="caron" format="1">
  <advance width="312"/>
  <unicode hex="02C7"/>
  <outline>
    <contour>
      <point x="66" y="762" type="line"/>
      <point x="70" y="762" type="line"/>
      <point x="156" y="605" type="line"/>
      <point x="242" y="762" type="line"/>
      <point x="246" y="762" type="line"/>
      <point x="158" y="602" type="line"/>
      <point x="154" y="602" type="line"/>
    </contour>
  </outline>
</glyph>
<glyph name="breve" format="1">
  <advance width="312"/>
  <unicode hex="02D8"/>
  <outline>
    <contour>
      <point x="229" y="731" type="line"/>
      <point x="228" y="658"/>
      <point x="197" y="602"/>
      <point x="140" y="602" type="curve" smooth="yes"/>
      <point x="83" y="602"/>
      <point x="53" y="658"/>
      <point x="52" y="731" type="curve"/>
      <point x="56" y="731" type="line"/>
      <point x="57" y="660"/>
      <point x="85" y="606"/>
      <point x="140" y="606" type="curve" smooth="yes"/>
      <point x="195" y="606"/>
      <point x="224" y="660"/>
      <point x="225" y="731" type="curve"/>
    </contour>
  </outline>
</glyph>
<glyph name="dotaccent" format="1">
  <advance width="312"/>
  <unicode hex="02D9"/>
  <outline>
    <contour>
      <point x="158" y="621" type="line"/>
      <point x="154" y="621" type="line"/>
      <point x="154" y="691" type="line"/>
      <point x="158" y="691" type="line"/>
    </contour>
  </outline>
</glyph>
<glyph name="ring" format="1">
  <advance width="312"/>
  <unicode hex="02DA"/>
  <outline>
    <contour>
      <point x="228" y="698" type="curve" smooth="yes"/>
      <point x="228" y="658"/>
      <point x="196" y="626"/>
      <point x="156" y="626" type="curve" smooth="yes"/>
      <point x="116" y="626"/>
      <point x="84" y="658"/>
      <point x="84" y="698" type="curve" smooth="yes"/>
      <point x="84" y="738"/>
      <point x="116" y="770"/>
      <point x="156" y="770" type="curve" smooth="yes"/>
      <point x="196" y="770"/>
      <point x="228" y="738"/>
    </contour>
    <contour>
      <point x="88" y="698" type="curve" smooth="yes"/>
      <point x="88" y="660"/>
      <point x="118" y="630"/>
      <point x="156" y="630" type="curve" smooth="yes"/>
      <point x="194" y="630"/>
      <point x="224" y="660"/>
      <point x="224" y="698" type="curve" smooth="yes"/>
      <point x="224" y="736"/>
      <point x="194" y="766"/>
      <point x="156" y="766" type="curve" smooth="yes"/>
      <point x="118" y="766"/>
      <point x="88" y="736"/>
    </contour>
  </outline>
</glyph>
<glyph name="ogonek" format="1">
  <advance width="312"/>
  <unicode hex="02DB"/>
  <outline>
    <contour>
      <point x="250" y="-149" type="line"/>
      <point x="232" y="-169"/>
      <point x="207" y="-192"/>
      <point x="173" y="-192" type="curve" smooth="yes"/>
      <point x="137" y="-192"/>
      <point x="112" y="-163"/>
      <point x="112" y="-123" type="curve" smooth="yes"/>
      <point x="112" y="-75"/>
      <point x="143" y="-27"/>
      <point x="171" y="0" type="curve"/>
      <point x="174" y="-2" type="line"/>
      <point x="146" y="-31"/>
      <point x="116" y="-77"/>
      <point x="116" y="-123" type="curve" smooth="yes"/>
      <point x="116" y="-161"/>
      <point x="140" y="-188"/>
      <point x="173" y="-188" type="curve" smooth="yes"/>
      <point x="205" y="-188"/>
      <point x="229" y="-167"/>
      <point x="247" y="-146" type="curve"/>
    </contour>
  </outline>
</glyph>
<glyph name="tilde" format="1">
  <advance width="296"/>
  <unicode hex="02DC"/>
  <outline>
    <contour>
      <point x="242" y="705" type="line"/>
      <point x="242" y="646"/>
      <point x="218" y="609"/>
      <point x="194" y="609" type="curve" smooth="yes"/>
      <point x="173" y="609"/>
      <point x="159" y="632"/>
      <point x="144" y="656" type="curve" smooth="yes"/>
      <point x="131" y="678"/>
      <point x="117" y="701"/>
      <point x="98" y="701" type="curve" smooth="yes"/>
      <point x="76" y="701"/>
      <point x="58" y="668"/>
      <point x="58" y="613" type="curve"/>
      <point x="54" y="613" type="line"/>
      <point x="54" y="670"/>
      <point x="74" y="705"/>
      <point x="98" y="705" type="curve" smooth="yes"/>
      <point x="119" y="705"/>
      <point x="132" y="683"/>
      <point x="147" y="659" type="curve" smooth="yes"/>
      <point x="160" y="637"/>
      <point x="175" y="613"/>
      <point x="194" y="613" type="curve" smooth="yes"/>
      <point x="216" y="613"/>
      <point x="238" y="648"/>
      <point x="238" y="705" type="curve"/>
    </contour>
  </outline>
</glyph>
<glyph name="hungarumlaut" format="1">
  <advance width="312"/>
  <unicode hex="02DD"/>
  <outline>
    <contour>
      <point x="236" y="762" type="line"/>
      <point x="240" y="762" type="line"/>
      <point x="161" y="602" type="line"/>
      <point x="157" y="602" type="line"/>
    </contour>
    <contour>
      <point x="149" y="762" type="line"/>
      <point x="153" y="762" type="line"/>
      <point x="74" y="602" type="line"/>
      <point x="70" y="602" type="line"/>
    </contour>
  </outline>
</glyph>
<glyph name="endash" format="1">
  <advance width="242"/>
  <unicode hex="2013"/>
  <outline>
    <contour>
      <point x="219" y="361" type="line"/>
      <point x="23" y="361" type="line"/>
      <point x="23" y="365" type="line"/>
      <point x="219" y="365" type="line"/>
    </contour>
  </outline>
</glyph>
<glyph name="emdash" format="1">
  <advance width="362"/>
  <unicode hex="2014"/>
  <outline>
    <contour>
      <point x="339" y="361" type="line"/>
      <point x="23" y="361" type="line"/>
      <point x="23" y="365" type="line"/>
      <point x="339" y="365" type="line"/>
    </contour>
  </outline>
</glyph>
<glyph name="quoteleft" format="1">
  <advance width="62"/>
  <unicode hex="2018"/>
  <unicode hex="02BB"/>
  <outline>
    <contour>
      <point x="44" y="700" type="line"/>
      <point x="23" y="550" type="line"/>
      <point x="19" y="550" type="line"/>
      <point x="40" y="700" type="line"/>
    </contour>
  </outline>
</glyph>
<glyph name="quoteright" format="1">
  <advance width="62"/>
  <unicode hex="2019"/>
  <unicode hex="02BC"/>
  <outline>
    <contour>
      <point x="44" y="700" type="line"/>
      <point x="23" y="550" type="line"/>
      <point x="19" y="550" type="line"/>
      <point x="40" y="700" type="line"/>
    </contour>
  </outline>
</glyph>
<glyph name="quotedblright" format="1">
  <advance width="136"/>
  <unicode hex="201D"/>
  <outline>
    <contour>
      <point x="118" y="700" type="line"/>
      <point x="97" y="550" type="line"/>
      <point x="93" y="550" type="line"/>
      <point x="114" y="700" type="line"/>
    </contour>
    <contour>
      <point x="44" y="700" type="line"/>
      <point x="23" y="550" type="line"/>
      <point x="19" y="550" type="line"/>
      <point x="40" y="700" type="line"/>
    </contour>
  </outline>
</glyph>
<glyph name="quotedblbase" format="1">
  <advance width="211"/>
  <unicode hex="201E"/>
  <outline>
    <contour>
      <point x="185" y="60" type="line"/>
      <point x="164" y="-90" type="line"/>
      <point x="160" y="-90" type="line"/>
      <point x="181" y="60" type="line"/>
    </contour>
    <contour>
      <point x="36" y="60" type="line"/>
      <point x="15" y="-90" type="line"/>
      <point x="11" y="-90" type="line"/>
      <point x="32" y="60" type="line"/>
    </contour>
  </outline>
</glyph>
<glyph name="dagger" format="1">
  <advance width="246"/>
  <unicode hex="2020"/>
  <outline>
    <contour>
      <point x="235" y="429" type="line"/>
      <point x="125" y="429" type="line"/>
      <point x="125" y="-100" type="line"/>
      <point x="121" y="-100" type="line"/>
      <point x="121" y="429" type="line"/>
      <point x="11" y="429" type="line"/>
      <point x="11" y="433" type="line"/>
      <point x="121" y="433" type="line"/>
      <point x="121" y="700" type="line"/>
      <point x="125" y="700" type="line"/>
      <point x="125" y="433" type="line"/>
      <point x="235" y="433" type="line"/>
    </contour>
  </outline>
</glyph>
<glyph name="daggerdbl" format="1">
  <advance width="246"/>
  <unicode hex="2021"/>
  <outline>
    <contour>
      <point x="230" y="166" type="line"/>
      <point x="125" y="166" type="line"/>
      <point x="125" y="-100" type="line"/>
      <point x="121" y="-100" type="line"/>
      <point x="121" y="166" type="line"/>
      <point x="16" y="166" type="line"/>
      <point x="16" y="170" type="line"/>
      <point x="121" y="170" type="line"/>
      <point x="121" y="429" type="line"/>
      <point x="16" y="429" type="line"/>
      <point x="16" y="433" type="line"/>
      <point x="121" y="433" type="line"/>
      <point x="121" y="700" type="line"/>
      <point x="125" y="700" type="line"/>
      <point x="125" y="433" type="line"/>
      <point x="230" y="433" type="line"/>
      <point x="230" y="429" type="line"/>
      <point x="125" y="429" type="line"/>
      <point x="125" y="170" type="line"/>
      <point x="230" y="170" type="line"/>
    </contour>
  </outline>
</glyph>
<glyph name="ellipsis" format="1">
  <advance width="212"/>
  <unicode hex="2026"/>
  <outline>
    <contour>
      <point x="183" y="0" type="line"/>
      <point x="179" y="0" type="line"/>
      <point x="179" y="60" type="line"/>
      <point x="183" y="60" type="line"/>
    </contour>
    <contour>
      <point x="108" y="0" type="line"/>
      <point x="104" y="0" type="line"/>
      <point x="104" y="60" type="line"/>
      <point x="108" y="60" type="line"/>
    </contour>
    <contour>
      <point x="33" y="0" type="line"/>
      <point x="29" y="0" type="line"/>
      <point x="29" y="60" type="line"/>
      <point x="33" y="60" type="line"/>
    </contour>
  </outline>
</glyph>
<glyph name="perthousand" format="1">
  <advance width="602"/>
  <unicode hex="2030"/>
  <outline>
    <contour>
      <point x="176" y="524" type="curve" smooth="yes"/>
      <point x="176" y="408"/>
      <point x="145" y="339"/>
      <point x="100" y="339" type="curve" smooth="yes"/>
      <point x="55" y="339"/>
      <point x="26" y="406"/>
      <point x="26" y="522" type="curve" smooth="yes"/>
      <point x="26" y="638"/>
      <point x="57" y="707"/>
      <point x="102" y="707" type="curve" smooth="yes"/>
      <point x="147" y="707"/>
      <point x="176" y="640"/>
    </contour>
    <contour>
      <point x="346" y="700" type="line"/>
      <point x="67" y="0" type="line"/>
      <point x="63" y="0" type="line"/>
      <point x="342" y="700" type="line"/>
    </contour>
    <contour>
      <point x="581" y="178" type="curve" smooth="yes"/>
      <point x="581" y="62"/>
      <point x="550" y="-7"/>
      <point x="505" y="-7" type="curve" smooth="yes"/>
      <point x="460" y="-7"/>
      <point x="431" y="60"/>
      <point x="431" y="176" type="curve" smooth="yes"/>
      <point x="431" y="292"/>
      <point x="462" y="361"/>
      <point x="507" y="361" type="curve" smooth="yes"/>
      <point x="552" y="361"/>
      <point x="581" y="294"/>
    </contour>
    <contour>
      <point x="383" y="178" type="curve" smooth="yes"/>
      <point x="383" y="62"/>
      <point x="352" y="-7"/>
      <point x="307" y="-7" type="curve" smooth="yes"/>
      <point x="262" y="-7"/>
      <point x="233" y="60"/>
      <point x="233" y="176" type="curve" smooth="yes"/>
      <point x="233" y="292"/>
      <point x="264" y="361"/>
      <point x="309" y="361" type="curve" smooth="yes"/>
      <point x="354" y="361"/>
      <point x="383" y="294"/>
    </contour>
    <contour>
      <point x="172" y="524" type="curve" smooth="yes"/>
      <point x="172" y="636"/>
      <point x="145" y="703"/>
      <point x="102" y="703" type="curve" smooth="yes"/>
      <point x="59" y="703"/>
      <point x="30" y="634"/>
      <point x="30" y="522" type="curve" smooth="yes"/>
      <point x="30" y="410"/>
      <point x="57" y="343"/>
      <point x="100" y="343" type="curve" smooth="yes"/>
      <point x="143" y="343"/>
      <point x="172" y="412"/>
    </contour>
    <contour>
      <point x="577" y="178" type="curve" smooth="yes"/>
      <point x="577" y="290"/>
      <point x="550" y="357"/>
      <point x="507" y="357" type="curve" smooth="yes"/>
      <point x="464" y="357"/>
      <point x="435" y="288"/>
      <point x="435" y="176" type="curve" smooth="yes"/>
      <point x="435" y="64"/>
      <point x="462" y="-3"/>
      <point x="505" y="-3" type="curve" smooth="yes"/>
      <point x="548" y="-3"/>
      <point x="577" y="66"/>
    </contour>
    <contour>
      <point x="379" y="178" type="curve" smooth="yes"/>
      <point x="379" y="290"/>
      <point x="352" y="357"/>
      <point x="309" y="357" type="curve" smooth="yes"/>
      <point x="266" y="357"/>
      <point x="237" y="288"/>
      <point x="237" y="176" type="curve" smooth="yes"/>
      <point x="237" y="64"/>
      <point x="264" y="-3"/>
      <point x="307" y="-3" type="curve" smooth="yes"/>
      <point x="350" y="-3"/>
      <point x="379" y="66"/>
    </contour>
  </outline>
</glyph>
<glyph name="guilsinglleft" format="1">
  <advance width="179"/>
  <unicode hex="2039"/>
  <outline>
    <contour>
      <point x="148" y="0" type="line"/>
      <point x="143" y="0" type="line"/>
      <point x="21" y="261" type="line"/>
      <point x="21" y="263" type="line"/>
      <point x="143" y="525" type="line"/>
      <point x="148" y="525" type="line"/>
      <point x="25" y="262" type="line"/>
    </contour>
  </outline>
</glyph>
<glyph name="guilsinglright" format="1">
  <advance width="179"/>
  <unicode hex="203A"/>
  <outline>
    <contour>
      <point x="158" y="261" type="line"/>
      <point x="36" y="0" type="line"/>
      <point x="31" y="0" type="line"/>
      <point x="154" y="262" type="line"/>
      <point x="31" y="525" type="line"/>
      <point x="36" y="525" type="line"/>
      <point x="158" y="263" type="line"/>
    </contour>
  </outline>
</glyph>
<glyph name="fraction" format="1">
  <advance width="202"/>
  <unicode hex="2044"/>
  <outline>
    <contour>
      <point x="226" y="700" type="line"/>
      <point x="-19" y="0" type="line"/>
      <point x="-24" y="0" type="line"/>
      <point x="221" y="700" type="line"/>
    </contour>
  </outline>
</glyph>
<glyph name="Euro" format="1">
  <advance width="287"/>
  <unicode hex="20AC"/>
  <outline>
    <contour>
      <point x="48" y="279" type="line"/>
      <point x="56" y="66"/>
      <point x="97" y="-3"/>
      <point x="154" y="-3" type="curve" smooth="yes"/>
      <point x="197" y="-3"/>
      <point x="227" y="37"/>
      <point x="246" y="163" type="curve"/>
      <point x="250" y="163" type="line"/>
      <point x="231" y="33"/>
      <point x="199" y="-7"/>
      <point x="154" y="-7" type="curve" smooth="yes"/>
      <point x="90" y="-7"/>
      <point x="43" y="77"/>
      <point x="43" y="350" type="curve" smooth="yes"/>
      <point x="43" y="623"/>
      <point x="90" y="707"/>
      <point x="154" y="707" type="curve" smooth="yes"/>
      <point x="199" y="707"/>
      <point x="231" y="667"/>
      <point x="250" y="537" type="curve"/>
      <point x="246" y="537" type="line"/>
      <point x="227" y="663"/>
      <point x="197" y="703"/>
      <point x="154" y="703" type="curve" smooth="yes"/>
      <point x="98" y="703"/>
      <point x="56" y="634"/>
      <point x="48" y="421" type="curve"/>
      <point x="166" y="421" type="line"/>
      <point x="166" y="417" type="line"/>
      <point x="48" y="417" type="line"/>
      <point x="47" y="396"/>
      <point x="47" y="373"/>
      <point x="47" y="350" type="curve" smooth="yes"/>
      <point x="47" y="326"/>
      <point x="47" y="304"/>
      <point x="48" y="283" type="curve"/>
      <point x="166" y="283" type="line"/>
      <point x="166" y="279" type="line"/>
    </contour>
  </outline>
</glyph>
<glyph name="uni2117" format="1">
  <advance width="437"/>
  <unicode hex="2117"/>
  <outline>
    <contour>
      <point x="400" y="352" type="curve" smooth="yes"/>
      <point x="400" y="153"/>
      <point x="339" y="-8"/>
      <point x="218" y="-8" type="curve" smooth="yes"/>
      <point x="97" y="-8"/>
      <point x="37" y="153"/>
      <point x="37" y="352" type="curve" smooth="yes"/>
      <point x="37" y="551"/>
      <point x="97" y="712"/>
      <point x="218" y="712" type="curve" smooth="yes"/>
      <point x="339" y="712"/>
      <point x="400" y="551"/>
    </contour>
    <contour>
      <point x="41" y="352" type="curve" smooth="yes"/>
      <point x="41" y="155"/>
      <point x="100" y="-4"/>
      <point x="218" y="-4" type="curve" smooth="yes"/>
      <point x="336" y="-4"/>
      <point x="396" y="155"/>
      <point x="396" y="352" type="curve" smooth="yes"/>
      <point x="396" y="549"/>
      <point x="336" y="708"/>
      <point x="218" y="708" type="curve" smooth="yes"/>
      <point x="100" y="708"/>
      <point x="41" y="549"/>
    </contour>
    <contour>
      <point x="181" y="351" type="line"/>
      <point x="181" y="151" type="line"/>
      <point x="177" y="151" type="line"/>
      <point x="177" y="544" type="line"/>
      <point x="199" y="544" type="line" smooth="yes"/>
      <point x="253" y="544"/>
      <point x="288" y="524"/>
      <point x="288" y="450" type="curve" smooth="yes"/>
      <point x="288" y="376"/>
      <point x="253" y="351"/>
      <point x="199" y="351" type="curve" smooth="yes"/>
    </contour>
    <contour>
      <point x="181" y="355" type="line"/>
      <point x="200" y="355" type="line" smooth="yes"/>
      <point x="252" y="355"/>
      <point x="284" y="380"/>
      <point x="284" y="450" type="curve" smooth="yes"/>
      <point x="284" y="520"/>
      <point x="252" y="540"/>
      <point x="200" y="540" type="curve" smooth="yes"/>
      <point x="181" y="540" type="line"/>
    </contour>
  </outline>
</glyph>
<glyph name="trademark" format="1">
  <advance width="375"/>
  <unicode hex="2122"/>
  <outline>
    <contour>
      <point x="141" y="696" type="line"/>
      <point x="76" y="696" type="line"/>
      <point x="76" y="311" type="line"/>
      <point x="72" y="311" type="line"/>
      <point x="72" y="696" type="line"/>
      <point x="3" y="696" type="line"/>
      <point x="3" y="700" type="line"/>
      <point x="141" y="700" type="line"/>
    </contour>
    <contour>
      <point x="349" y="700" type="line"/>
      <point x="349" y="311" type="line"/>
      <point x="345" y="311" type="line"/>
      <point x="345" y="692" type="line"/>
      <point x="269" y="309" type="line"/>
      <point x="265" y="309" type="line"/>
      <point x="189" y="692" type="line"/>
      <point x="189" y="311" type="line"/>
      <point x="185" y="311" type="line"/>
      <point x="185" y="700" type="line"/>
      <point x="191" y="700" type="line"/>
      <point x="267" y="318" type="line"/>
      <point x="343" y="700" type="line"/>
    </contour>
  </outline>
</glyph>
<glyph name="arrowleft" format="1">
  <advance width="232"/>
  <unicode hex="2190"/>
  <outline>
    <contour>
      <point x="221" y="348" type="line"/>
      <point x="21" y="348" type="line"/>
      <point x="117" y="270" type="line"/>
      <point x="115" y="266" type="line"/>
      <point x="13" y="350" type="line"/>
      <point x="115" y="434" type="line"/>
      <point x="117" y="430" type="line"/>
      <point x="21" y="352" type="line"/>
      <point x="221" y="352" type="line"/>
    </contour>
  </outline>
</glyph>
<glyph name="arrowright" format="1">
  <advance width="232"/>
  <unicode hex="2192"/>
  <outline>
    <contour>
      <point x="219" y="350" type="line"/>
      <point x="117" y="266" type="line"/>
      <point x="115" y="270" type="line"/>
      <point x="211" y="348" type="line"/>
      <point x="11" y="348" type="line"/>
      <point x="11" y="352" type="line"/>
      <point x="211" y="352" type="line"/>
      <point x="115" y="430" type="line"/>
      <point x="117" y="434" type="line"/>
    </contour>
  </outline>
</glyph>
<glyph name="arrowdown" format="1">
  <advance width="242"/>
  <unicode hex="2193"/>
  <outline>
    <contour>
      <point x="205" y="94" type="line"/>
      <point x="121" y="-9" type="line"/>
      <point x="37" y="94" type="line"/>
      <point x="41" y="96" type="line"/>
      <point x="119" y="0" type="line"/>
      <point x="119" y="706" type="line"/>
      <point x="123" y="706" type="line"/>
      <point x="123" y="0" type="line"/>
      <point x="201" y="96" type="line"/>
    </contour>
  </outline>
</glyph>
<glyph name="arrowboth" format="1">
  <advance width="432"/>
  <unicode hex="2194"/>
  <outline>
    <contour>
      <point x="420" y="350" type="line"/>
      <point x="317" y="266" type="line"/>
      <point x="315" y="270" type="line"/>
      <point x="411" y="348" type="line"/>
      <point x="21" y="348" type="line"/>
      <point x="117" y="270" type="line"/>
      <point x="115" y="266" type="line"/>
      <point x="13" y="350" type="line"/>
      <point x="115" y="434" type="line"/>
      <point x="117" y="430" type="line"/>
      <point x="21" y="352" type="line"/>
      <point x="411" y="352" type="line"/>
      <point x="315" y="430" type="line"/>
      <point x="317" y="434" type="line"/>
    </contour>
  </outline>
</glyph>
<glyph name="arrowupdn" format="1">
  <advance width="242"/>
  <unicode hex="2195"/>
  <outline>
    <contour>
      <point x="205" y="94" type="line"/>
      <point x="121" y="-9" type="line"/>
      <point x="37" y="94" type="line"/>
      <point x="41" y="96" type="line"/>
      <point x="119" y="0" type="line"/>
      <point x="119" y="700" type="line"/>
      <point x="41" y="604" type="line"/>
      <point x="37" y="606" type="line"/>
      <point x="121" y="709" type="line"/>
      <point x="205" y="606" type="line"/>
      <point x="201" y="604" type="line"/>
      <point x="123" y="700" type="line"/>
      <point x="123" y="0" type="line"/>
      <point x="201" y="96" type="line"/>
    </contour>
  </outline>
</glyph>
<glyph name="radical" format="1">
  <advance width="282"/>
  <unicode hex="221A"/>
  <outline>
    <contour>
      <point x="269" y="700" type="line"/>
      <point x="130" y="-5" type="line"/>
      <point x="125" y="-5" type="line"/>
      <point x="16" y="339" type="line"/>
      <point x="20" y="341" type="line"/>
      <point x="127" y="4" type="line"/>
      <point x="265" y="700" type="line"/>
    </contour>
  </outline>
</glyph>
<glyph name="apple" format="1">
  <advance width="432"/>
  <unicode hex="F8FF"/>
  <outline>
    <contour>
      <point x="420" y="350" type="line"/>
      <point x="317" y="266" type="line"/>
      <point x="315" y="270" type="line"/>
      <point x="411" y="348" type="line"/>
      <point x="218" y="348" type="line"/>
      <point x="218" y="0" type="line"/>
      <point x="296" y="96" type="line"/>
      <point x="300" y="94" type="line"/>
      <point x="216" y="-9" type="line"/>
      <point x="132" y="94" type="line"/>
      <point x="136" y="96" type="line"/>
      <point x="214" y="0" type="line"/>
      <point x="214" y="348" type="line"/>
      <point x="21" y="348" type="line"/>
      <point x="117" y="270" type="line"/>
      <point x="115" y="266" type="line"/>
      <point x="13" y="350" type="line"/>
      <point x="115" y="434" type="line"/>
      <point x="117" y="430" type="line"/>
      <point x="21" y="352" type="line"/>
      <point x="214" y="352" type="line"/>
      <point x="214" y="700" type="line"/>
      <point x="136" y="604" type="line"/>
      <point x="132" y="606" type="line"/>
      <point x="216" y="709" type="line"/>
      <point x="300" y="606" type="line"/>
      <point x="296" y="604" type="line"/>
      <point x="218" y="700" type="line"/>
      <point x="218" y="352" type="line"/>
      <point x="411" y="352" type="line"/>
      <point x="315" y="430" type="line"/>
      <point x="317" y="434" type="line"/>
    </contour>
  </outline>
</glyph>
<glyph name="bullet" format="1">
  <advance width="150"/>
  <outline>
    <contour>
      <point x="102" y="366" type="curve" smooth="yes"/>
      <point x="102" y="351"/>
      <point x="90" y="339"/>
      <point x="75" y="339" type="curve" smooth="yes"/>
      <point x="60" y="339"/>
      <point x="48" y="351"/>
      <point x="48" y="366" type="curve" smooth="yes"/>
      <point x="48" y="381"/>
      <point x="60" y="394"/>
      <point x="75" y="394" type="curve" smooth="yes"/>
      <point x="90" y="394"/>
      <point x="102" y="381"/>
    </contour>
  </outline>
</glyph>
<glyph name="macron" format="1">
  <advance width="312"/>
  <outline>
    <contour>
      <point x="257" y="640" type="line"/>
      <point x="55" y="640" type="line"/>
      <point x="55" y="644" type="line"/>
      <point x="257" y="644" type="line"/>
    </contour>
  </outline>
</glyph>
<glyph name="registered" format="1">
  <advance width="437"/>
  <outline>
    <contour>
      <point x="400" y="352" type="curve" smooth="yes"/>
      <point x="400" y="153"/>
      <point x="339" y="-8"/>
      <point x="218" y="-8" type="curve" smooth="yes"/>
      <point x="97" y="-8"/>
      <point x="37" y="153"/>
      <point x="37" y="352" type="curve" smooth="yes"/>
      <point x="37" y="551"/>
      <point x="97" y="712"/>
      <point x="218" y="712" type="curve" smooth="yes"/>
      <point x="339" y="712"/>
      <point x="400" y="551"/>
    </contour>
    <contour>
      <point x="41" y="352" type="curve" smooth="yes"/>
      <point x="41" y="155"/>
      <point x="100" y="-4"/>
      <point x="218" y="-4" type="curve" smooth="yes"/>
      <point x="336" y="-4"/>
      <point x="396" y="155"/>
      <point x="396" y="352" type="curve" smooth="yes"/>
      <point x="396" y="549"/>
      <point x="336" y="708"/>
      <point x="218" y="708" type="curve" smooth="yes"/>
      <point x="100" y="708"/>
      <point x="41" y="549"/>
    </contour>
    <contour>
      <point x="224" y="367" type="curve"/>
      <point x="285" y="162" type="line"/>
      <point x="281" y="162" type="line"/>
      <point x="220" y="366" type="line"/>
      <point x="212" y="364"/>
      <point x="202" y="363"/>
      <point x="191" y="363" type="curve" smooth="yes"/>
      <point x="173" y="363" type="line"/>
      <point x="173" y="163" type="line"/>
      <point x="169" y="163" type="line"/>
      <point x="169" y="556" type="line"/>
      <point x="191" y="556" type="line" smooth="yes"/>
      <point x="245" y="556"/>
      <point x="280" y="536"/>
      <point x="280" y="462" type="curve" smooth="yes"/>
      <point x="280" y="404"/>
      <point x="259" y="376"/>
    </contour>
    <contour>
      <point x="173" y="367" type="line"/>
      <point x="192" y="367" type="line" smooth="yes"/>
      <point x="244" y="367"/>
      <point x="276" y="392"/>
      <point x="276" y="462" type="curve" smooth="yes"/>
      <point x="276" y="532"/>
      <point x="244" y="552"/>
      <point x="192" y="552" type="curve" smooth="yes"/>
      <point x="173" y="552" type="line"/>
    </contour>
  </outline>
</glyph>
